<svg width="191" height="46" viewBox="0 0 191 46" fill="none" xmlns="http://www.w3.org/2000/svg">
<path d="M33.4041 27.8706C30.9473 37.881 19.268 46 9.27708 46L11.7759 35.8107C4.15981 33.9845 -1.67561 26.7639 0.436815 18.1379C2.89991 8.1169 14.577 0 24.5722 0L22.0713 10.1893C29.6874 12.0155 35.5228 19.2382 33.4041 27.8706Z" fill="white"/>
<path d="M33.4041 27.8706C30.9473 37.881 19.268 46 9.27708 46L11.7759 35.8107C4.15981 33.9845 -1.67561 26.7639 0.436815 18.1379C2.89991 8.1169 14.577 0 24.5722 0L22.0713 10.1893C29.6874 12.0155 35.5228 19.2382 33.4041 27.8706Z" fill="white"/>
<path d="M27.9869 20.7343L11.7784 35.8109H11.7763L14.3654 25.264H5.86108L22.0696 10.1895L19.4826 20.7343H27.9869Z" fill="#0F1B28"/>
<path d="M50.098 34.3712C48.6946 33.7918 47.4591 32.8596 46.5076 31.662L50.2718 27.1216C51.5729 28.847 52.98 29.7088 54.4929 29.7071C55.4862 29.7071 56.2468 29.4002 56.7748 28.7864C57.3029 28.1726 57.5644 27.2755 57.5595 26.095V15.4451H49.1172V10.0269H64.3828V25.6787C64.3828 28.8907 63.5874 31.2988 61.9966 32.9031C60.4058 34.5074 58.066 35.3078 54.9771 35.3045C53.3056 35.3287 51.6464 35.0113 50.098 34.3712Z" fill="white"/>
<path d="M85.1453 27.2809H72.2069C72.4349 28.1979 72.9796 28.9927 73.7347 29.5102C74.5879 30.0591 75.5756 30.332 76.5751 30.2952C77.4291 30.2952 78.9148 29.803 79.5722 28.6933L84.633 30.1524C82.8478 33.9099 79.7056 35.3051 76.3762 35.3051C74.2955 35.3051 72.4674 34.8949 70.892 34.0747C69.4028 33.3035 68.1457 32.1137 67.26 30.6371C66.3744 29.1605 65.8948 27.4549 65.8745 25.7092C65.8541 23.9635 66.2938 22.246 67.1447 20.747C67.9957 19.2481 69.2247 18.0262 70.6955 17.2168C72.2231 16.4143 73.9047 15.9895 75.6122 15.9745C77.3197 15.9596 79.0078 16.355 80.5479 17.1307C81.968 17.8738 83.1582 19.0258 83.9802 20.4526C84.8225 21.9289 85.4916 24.1115 85.1453 27.2809ZM73.3393 21.4786C72.677 22.0836 72.2408 22.9165 72.1086 23.8286H79.4084C79.2744 22.9172 78.8385 22.0849 78.1778 21.4786C77.4854 20.9188 76.6366 20.6152 75.7632 20.6152C74.8899 20.6152 74.041 20.9188 73.3487 21.4786H73.3393Z" fill="white"/>
<path d="M149.192 27.2809H135.255C135.501 28.1979 136.087 28.9927 136.901 29.5102C137.82 30.0591 138.883 30.332 139.96 30.2952C140.88 30.2952 142.48 29.803 143.188 28.6933L148.638 30.1524C146.715 33.9099 143.331 35.3051 139.748 35.3051C137.506 35.3051 135.536 34.8949 133.839 34.0747C132.235 33.3035 130.881 32.1137 129.928 30.6371C128.974 29.1605 128.457 27.4549 128.435 25.7092C128.413 23.9635 128.887 22.246 129.803 20.747C130.72 19.2481 132.043 18.0262 133.628 17.2168C135.273 16.4143 137.084 15.9895 138.923 15.9745C140.762 15.9596 142.58 16.355 144.238 17.1307C145.768 17.8738 147.05 19.0258 147.935 20.4526C148.842 21.9289 149.555 24.1115 149.192 27.2809ZM136.475 21.4786C135.762 22.0843 135.293 22.9169 135.149 23.8286H143.001C142.858 22.9169 142.388 22.0843 141.676 21.4786C140.93 20.9188 140.016 20.6152 139.075 20.6152C138.135 20.6152 137.221 20.9188 136.475 21.4786Z" fill="white"/>
<path d="M101.624 34.2078C100.998 34.5905 100.315 34.8656 99.6021 35.0223C98.7682 35.2141 97.9158 35.3088 97.0612 35.3047C94.6187 35.3047 92.7409 34.6911 91.4278 33.4639C90.1146 32.2367 89.4581 30.4077 89.4581 27.9768V21.5264H86.7275V16.5008H89.4581V11.5129H96.0246V16.5008H100.309V21.5264H96.0246V27.9037C95.9919 28.4914 96.1835 29.0692 96.5589 29.515C96.7441 29.7108 96.9679 29.8641 97.2154 29.9645C97.4629 30.0649 97.7284 30.1103 97.9943 30.0975C99.2587 30.1231 100.508 29.8157 101.624 29.2049V34.2078Z" fill="white"/>
<path d="M103.115 10.0264H113.511C116.145 10.0264 118.482 10.5412 120.522 11.5707C122.477 12.5343 124.125 14.073 125.265 16.0005C126.386 17.9018 126.947 20.1326 126.949 22.6928C126.951 25.2531 126.389 27.4839 125.265 29.3852C124.118 31.294 122.471 32.8136 120.522 33.7609C118.482 34.7905 116.145 35.3053 113.511 35.3053H103.115V10.0264ZM113.237 29.6117C115.298 29.6117 116.953 28.9973 118.202 27.7687C119.45 26.5401 120.074 24.8421 120.074 22.6748C120.074 20.5041 119.45 18.8053 118.202 17.5784C116.953 16.3515 115.298 15.7397 113.237 15.7431H109.919V29.6194L113.237 29.6117Z" fill="white"/>
<path d="M154.017 34.769C152.868 34.5074 151.772 34.0346 150.779 33.3725V27.8845C151.586 28.4156 154.18 29.8343 155.295 30.1441C156.372 30.4511 157.484 30.6081 158.6 30.6112C159.605 30.6112 160.319 30.5031 160.746 30.2842C160.93 30.2121 161.09 30.0829 161.204 29.9136C161.318 29.7443 161.381 29.5427 161.385 29.3351C161.385 28.9196 161.128 28.627 160.615 28.4524C159.815 28.2229 158.999 28.0585 158.175 27.9607C156.954 27.8167 155.744 27.5742 154.558 27.2353C153.574 26.9419 152.687 26.3685 151.992 25.5781C151.272 24.7733 150.912 23.6464 150.912 22.1973C150.895 21.0419 151.249 19.9144 151.917 18.9984C152.594 18.0674 153.581 17.3298 154.88 16.7855C156.178 16.2413 157.733 15.9709 159.545 15.9742C160.832 15.9742 164.611 16.3405 166.075 17.5625V22.5588C164.506 21.6392 161.41 20.6335 159.57 20.6335C158.586 20.6335 157.867 20.754 157.408 20.995C156.949 21.2359 156.72 21.5531 156.72 21.9441C156.72 22.3817 156.971 22.6874 157.473 22.8612C158.289 23.1027 159.121 23.281 159.962 23.3947C161.189 23.5728 162.403 23.8381 163.596 24.1889C164.556 24.4877 165.421 25.0544 166.101 25.8289C166.81 26.6223 167.165 27.732 167.165 29.1581C167.174 30.3033 166.815 31.418 166.145 32.3201C165.469 33.2528 164.471 33.983 163.15 34.5109C161.83 35.0387 160.242 35.3034 158.385 35.3051C156.914 35.3039 155.448 35.124 154.017 34.769Z" fill="white"/>
<path d="M178.314 28.8327L176.454 30.7742V35.3053H170.146V10.0264H176.454V23.2774L182.898 16.846H190.368L182.898 24.7433L191 35.3053H183.362L178.314 28.8327Z" fill="white"/>
</svg>
