<svg width="414" height="926" viewBox="0 0 414 926" fill="none" xmlns="http://www.w3.org/2000/svg">
<circle cx="207" cy="451" r="207.5" stroke="#D9D9D9"/>
<circle cx="207" cy="451" r="298.5" stroke="#D9D9D9"/>
<circle cx="207" cy="451" r="394.5" stroke="#D9D9D9"/>
<g filter="url(#filter0_d)">
<rect x="272" y="556" width="124" height="123" rx="61.5" fill="white"/>
<path d="M324.496 594.924H343.773L360.929 624.969L338.147 617.917L324.496 594.924Z" fill="#FBCE4B"/>
<path d="M338.145 617.918L342.71 624.97H360.927L338.145 617.918Z" fill="#DFB53D"/>
<path d="M360.928 624.971L351.828 641.027H316.594L333.995 624.971H360.928Z" fill="#3476DD"/>
<path d="M326.033 624.971L316.594 641.027L333.995 624.971H326.033Z" fill="#055BD8"/>
<path d="M316.595 641.026L307.094 624.969L324.496 594.924L330.122 617.966L326.034 624.969L316.595 641.026Z" fill="#15A864"/>
<path d="M324.496 594.924L330.122 617.966L333.996 610.926L324.496 594.924Z" fill="#129155"/>
</g>
<g filter="url(#filter1_d)">
<rect x="257" y="761" width="124" height="123" rx="61.5" fill="white"/>
<path fill-rule="evenodd" clip-rule="evenodd" d="M312.185 817.276C310.607 815.699 308.544 814.91 306.461 814.91C304.398 814.91 302.315 815.699 300.737 817.276C297.582 820.432 297.582 825.548 300.737 828.724C303.892 831.879 309.009 831.879 312.185 828.724C315.34 825.569 315.34 820.432 312.185 817.276ZM309.899 826.438C307.998 828.339 304.924 828.339 303.043 826.438C301.142 824.537 301.142 821.463 303.043 819.582C304.944 817.681 308.018 817.681 309.899 819.582C311.78 821.463 311.78 824.537 309.899 826.438Z" fill="#2D8CFF"/>
<path fill-rule="evenodd" clip-rule="evenodd" d="M329.173 817.276C327.595 815.699 325.532 814.91 323.449 814.91C321.386 814.91 319.303 815.699 317.726 817.276C314.571 820.432 314.571 825.548 317.726 828.724C320.881 831.879 325.998 831.879 329.173 828.724C332.328 825.569 332.328 820.432 329.173 817.276ZM326.887 826.438C324.986 828.339 321.912 828.339 320.031 826.438C318.13 824.537 318.13 821.463 320.031 819.582C321.932 817.681 325.007 817.681 326.887 819.582C328.768 821.463 328.768 824.537 326.887 826.438Z" fill="#2D8CFF"/>
<path fill-rule="evenodd" clip-rule="evenodd" d="M286.236 831.049L287.045 831.09H299.18L299.139 830.281C299.038 828.946 298.088 827.975 296.753 827.894L295.944 827.854H288.663L298.371 818.146L298.33 817.337C298.27 816.002 297.279 815.011 295.944 814.951L295.135 814.91H283L283.04 815.719C283.142 817.034 284.112 818.025 285.427 818.106L286.236 818.146H293.517L283.809 827.854L283.849 828.663C283.93 829.998 284.901 830.969 286.236 831.049Z" fill="#2D8CFF"/>
<path fill-rule="evenodd" clip-rule="evenodd" d="M341.611 819.764C341.894 820.249 341.975 820.775 342.015 821.382L342.056 822.191V827.854L342.096 828.663C342.177 829.978 343.148 830.969 344.482 831.049L345.291 831.09V822.191L345.332 821.382C345.372 820.775 345.453 820.229 345.736 819.744C346.303 818.773 347.334 818.146 348.527 818.146C349.721 818.146 350.772 818.793 351.339 819.764C351.622 820.249 351.703 820.796 351.723 821.382L351.763 822.191V827.854L351.804 828.663C351.885 829.998 352.856 830.969 354.19 831.049L354.999 831.09V822.191V821.382C354.999 817.802 352.107 814.91 348.527 814.91C346.586 814.91 344.867 815.76 343.673 817.094C342.48 815.76 340.761 814.91 338.82 814.91C337.485 814.91 336.231 815.315 335.199 816.023C334.572 815.315 333.157 814.91 332.348 814.91V831.09L333.157 831.049C334.512 830.969 335.482 829.998 335.543 828.663L335.584 827.854V822.191L335.624 821.382C335.665 820.775 335.745 820.229 336.029 819.764C336.595 818.793 337.626 818.146 338.82 818.146C340.013 818.146 341.065 818.793 341.611 819.764Z" fill="#2D8CFF"/>
</g>
<g filter="url(#filter2_d)">
<rect x="16" y="659" width="124" height="123" rx="61.5" fill="white"/>
<path d="M83.5981 726.329L94.7357 715.678C92.4222 706.657 83.2338 701.219 74.2129 703.533C70.1505 704.574 66.6221 707.093 64.3164 710.596C64.4888 710.592 83.5981 726.329 83.5981 726.329Z" fill="#0364B8"/>
<path d="M71.5752 712.601L71.5747 712.603C69.4465 711.285 66.9922 710.588 64.4889 710.592C64.431 710.592 64.3742 710.595 64.3165 710.596C56.8704 710.688 50.9089 716.799 51.0011 724.246C51.0345 726.947 51.8784 729.575 53.4235 731.791L70.1093 729.701L82.902 719.386L71.5752 712.601Z" fill="#0078D4"/>
<path d="M94.7361 715.678C94.4912 715.662 94.2452 715.65 93.9962 715.65C92.5021 715.649 91.0235 715.954 89.652 716.547L89.6517 716.546L82.9023 719.386L90.343 728.577L103.645 731.811C106.516 726.482 104.523 719.835 99.1935 716.964C97.8165 716.222 96.2966 715.784 94.7361 715.678V715.678H94.7361Z" fill="#1490DF"/>
<path d="M53.4219 731.791C55.9413 735.413 60.075 737.572 64.4873 737.57H93.9943C98.025 737.571 101.731 735.359 103.643 731.811L82.9003 719.386L53.4219 731.791Z" fill="#28A8EA"/>
</g>
<g filter="url(#filter3_d)">
<rect x="89" y="204" width="124" height="123" rx="61.5" fill="white"/>
<path d="M175.541 265.095C175.541 251.545 164.542 240.554 150.991 240.554C137.441 240.554 126.441 251.545 126.441 265.095C126.441 277.933 138.154 288.343 150.991 288.343V297.386C165.902 289.822 175.541 277.654 175.541 265.095Z" fill="#00897B"/>
<path d="M166.172 256.217L162.951 265.095H145.179L138.047 273.837L164.187 299.968H181.676V271.716L166.172 256.217Z" fill="url(#paint0_linear)"/>
<g opacity="0.2">
<path opacity="0.2" d="M150.991 288.02C138.202 288.02 126.539 277.693 126.446 264.922C126.446 264.979 126.441 265.037 126.441 265.095C126.441 277.932 138.154 288.343 150.991 288.343V288.02ZM150.991 297.062V297.385C165.902 289.822 175.541 277.653 175.541 265.095C175.541 265.041 175.537 264.988 175.537 264.94C175.453 277.436 165.835 289.534 150.991 297.062Z" fill="#263238"/>
</g>
<g opacity="0.2">
<path opacity="0.2" d="M156.478 274.78H140.327C139.499 274.78 138.675 274.466 138.042 273.832C137.408 273.199 137.094 272.375 137.094 271.547V271.871C137.094 272.699 137.408 273.522 138.042 274.156C138.675 274.789 139.499 275.103 140.327 275.103H156.478C157.307 275.103 158.131 274.789 158.764 274.156C159.393 273.527 159.712 272.699 159.712 271.871V271.547C159.712 272.375 159.398 273.199 158.764 273.832C158.131 274.466 157.302 274.78 156.478 274.78ZM159.708 267.841L166.166 274.297V273.974L159.708 267.518V267.841Z" fill="#263238"/>
</g>
<path d="M159.708 262.674V258.64C159.708 257.812 159.393 256.988 158.76 256.355C158.131 255.726 157.302 255.407 156.474 255.407H140.327C139.499 255.407 138.675 255.722 138.042 256.355C137.413 256.984 137.094 257.812 137.094 258.64V271.557C137.094 272.385 137.408 273.209 138.042 273.842C138.675 274.475 139.499 274.79 140.327 274.79H156.478C157.307 274.79 158.131 274.475 158.764 273.842C159.393 273.213 159.712 272.385 159.712 271.557V267.523L166.171 273.979V256.218L159.708 262.674Z" fill="#F5F5F5"/>
<path d="M137.102 258.64V265.096H166.17V256.218L159.711 262.674V258.64C159.711 257.812 159.397 256.988 158.763 256.355C158.134 255.726 157.306 255.407 156.477 255.407H140.331C139.503 255.407 138.679 255.722 138.045 256.355C137.416 256.984 137.102 257.812 137.102 258.64Z" fill="#E0E0E0"/>
<path d="M137.102 264.773H166.17V265.097H137.102V264.773Z" fill="#212121" fill-opacity="0.02"/>
<path d="M137.102 265.095H166.17V265.418H137.102V265.095Z" fill="white" fill-opacity="0.05"/>
<path opacity="0.2" d="M140.327 255.73H156.478C157.307 255.73 158.131 256.045 158.764 256.678C159.393 257.307 159.712 258.135 159.712 258.963V258.64C159.712 257.812 159.398 256.988 158.764 256.355C158.135 255.726 157.307 255.407 156.478 255.407H140.327C139.499 255.407 138.675 255.722 138.042 256.355C137.413 256.984 137.094 257.812 137.094 258.64V258.963C137.094 258.135 137.408 257.311 138.042 256.678C138.675 256.049 139.499 255.73 140.327 255.73ZM159.708 262.674V262.997L166.166 256.541V256.218L159.708 262.674Z" fill="white"/>
<path opacity="0.2" d="M150.987 240.877C164.485 240.877 175.449 251.78 175.533 265.259C175.533 265.202 175.537 265.149 175.537 265.091C175.537 251.541 164.538 240.55 150.987 240.55C137.437 240.55 126.438 251.545 126.438 265.096C126.438 265.149 126.442 265.197 126.442 265.246C126.535 251.775 137.494 240.877 150.987 240.877Z" fill="white"/>
<path d="M175.537 265.096C175.537 251.546 164.538 240.555 150.987 240.555C137.437 240.555 126.438 251.546 126.438 265.096C126.438 277.934 138.15 288.344 150.987 288.344V297.387C165.898 289.823 175.537 277.655 175.537 265.096Z" fill="url(#paint1_radial)"/>
</g>
<g filter="url(#filter4_d)">
<rect x="284" y="112" width="124" height="123" rx="61.5" fill="white"/>
<path d="M363.08 151.352H328.775C326.815 151.352 325.227 152.94 325.227 154.9L325.295 177.376H366.628V154.9C366.628 152.94 365.04 151.352 363.08 151.352Z" fill="#C2C2C2"/>
<path d="M365.444 158.448H326.408C324.447 158.448 322.859 160.036 322.859 161.997C322.859 162.163 322.871 162.325 322.892 162.482L325.225 177.375H366.627L368.96 162.482C368.981 162.322 368.993 162.16 368.993 161.997C368.993 160.036 367.405 158.448 365.444 158.448Z" fill="#3367D6"/>
<path opacity="0.5" d="M365.444 158.449H326.408C324.447 158.449 322.859 160.037 322.859 161.998C322.859 162.164 322.871 162.326 322.892 162.483L325.225 177.376H366.627L368.96 162.483C368.981 162.323 368.993 162.161 368.993 161.998C368.993 160.037 367.405 158.449 365.444 158.449Z" fill="#2A56C6"/>
<path d="M367.802 192.508L366.628 177.376H325.226L324.052 192.508C324.046 192.591 324.043 192.671 324.043 192.754C324.043 194.715 325.631 196.303 327.592 196.303H364.262C366.223 196.303 367.811 194.714 367.811 192.754C367.811 192.671 367.808 192.591 367.802 192.508Z" fill="#4285F4"/>
<path d="M325.227 177.376L344.153 196.303H367.811V177.376H325.227Z" fill="url(#paint2_linear)"/>
<path d="M326.412 158.745H365.448C367.367 158.745 368.929 160.271 368.991 162.175C368.994 162.116 368.997 162.057 368.997 161.998C368.997 160.037 367.409 158.449 365.448 158.449H326.412C324.451 158.449 322.863 160.037 322.863 161.998C322.863 162.057 322.866 162.116 322.869 162.175C322.931 160.271 324.493 158.745 326.412 158.745Z" fill="white" fill-opacity="0.2"/>
<path d="M364.262 196.006H327.592C325.672 196.006 324.111 194.48 324.049 192.575C324.046 192.634 324.043 192.693 324.043 192.753C324.043 194.713 325.631 196.301 327.592 196.301H364.262C366.223 196.301 367.811 194.713 367.811 192.753C367.811 192.693 367.808 192.634 367.805 192.575C367.743 194.48 366.181 196.006 364.262 196.006Z" fill="#1A237E" fill-opacity="0.2"/>
<path d="M363.08 151.352H328.775C326.815 151.352 325.227 152.94 325.227 154.9V155.181C325.235 153.229 326.821 151.647 328.775 151.647H363.08C365.04 151.647 366.628 153.235 366.628 155.196V154.9C366.628 152.94 365.04 151.352 363.08 151.352Z" fill="white" fill-opacity="0.2"/>
<path d="M342.464 177.119C343.81 176.563 345.543 175.084 345.543 172.857C345.543 169.427 343.339 167.318 339.628 167.318C336.322 167.318 333.657 169.483 333.61 172.641H336.011C336.047 170.796 337.295 169.279 339.625 169.279C341.87 169.279 343.135 170.447 343.135 172.804C343.135 175.161 341.332 176.249 339.131 176.249C338.268 176.249 337.455 176.249 337.455 176.249V178.13C337.455 178.13 338.383 178.13 339.131 178.13C342.367 178.13 343.431 179.81 343.431 181.759C343.431 184.308 341.882 185.485 339.637 185.485C337.682 185.485 335.902 184.441 335.849 182.108H333.43C333.533 185.866 336.698 187.431 339.637 187.431C343.032 187.431 345.832 185.452 345.832 181.706C345.838 178.683 343.685 177.477 342.464 177.119ZM356.192 167.318L349.189 169.832V172.091L354.216 170.412V187.428H356.582V167.318H356.192Z" fill="#E1E1E1"/>
<g opacity="0.5">
<path opacity="0.5" d="M342.464 177.119C343.81 176.563 345.543 175.084 345.543 172.857C345.543 169.427 343.339 167.318 339.628 167.318C336.322 167.318 333.657 169.483 333.61 172.641H336.011C336.047 170.796 337.295 169.279 339.625 169.279C341.87 169.279 343.135 170.447 343.135 172.804C343.135 175.161 341.332 176.249 339.131 176.249C338.268 176.249 337.455 176.249 337.455 176.249V178.13C337.455 178.13 338.383 178.13 339.131 178.13C342.367 178.13 343.431 179.81 343.431 181.759C343.431 184.308 341.882 185.485 339.637 185.485C337.682 185.485 335.902 184.441 335.849 182.108H333.43C333.533 185.866 336.698 187.431 339.637 187.431C343.032 187.431 345.832 185.452 345.832 181.706C345.838 178.683 343.685 177.477 342.464 177.119ZM356.192 167.318L349.189 169.832V172.091L354.216 170.412V187.428H356.582V167.318H356.192Z" fill="#C2C2C2"/>
</g>
<path d="M342.464 177.121C343.81 176.565 345.543 175.086 345.543 172.859C345.543 169.429 343.339 167.32 339.628 167.32C336.322 167.32 333.657 169.485 333.61 172.643H336.011C336.047 170.798 337.295 169.281 339.625 169.281C341.87 169.281 343.135 170.449 343.135 172.806C343.135 175.163 341.332 176.251 339.131 176.251C338.268 176.251 337.455 176.251 337.455 176.251V178.132C337.455 178.132 338.383 178.132 339.131 178.132C342.367 178.132 343.431 179.812 343.431 181.761C343.431 184.31 341.882 185.487 339.637 185.487C337.682 185.487 335.902 184.443 335.849 182.11H333.43C333.533 185.868 336.698 187.433 339.637 187.433C343.032 187.433 345.832 185.454 345.832 181.707C345.838 178.685 343.685 177.479 342.464 177.121ZM356.192 167.32L349.189 169.834V172.093L354.216 170.414V187.43H356.582V167.32H356.192Z" fill="#EEEEEE"/>
<path d="M335.733 158.447L333.441 156.152L335.949 153.645L340.755 158.447H335.733Z" fill="url(#paint3_linear)"/>
<path d="M334.692 156.674C335.672 156.674 336.467 155.879 336.467 154.899C336.467 153.919 335.672 153.125 334.692 153.125C333.712 153.125 332.918 153.919 332.918 154.899C332.918 155.879 333.712 156.674 334.692 156.674Z" fill="#EEEEEE"/>
<path d="M334.692 153.421C335.624 153.421 336.384 154.136 336.458 155.047C336.464 154.997 336.467 154.95 336.467 154.899C336.467 153.921 335.671 153.125 334.692 153.125C333.713 153.125 332.918 153.921 332.918 154.899C332.918 154.95 332.921 154.997 332.927 155.047C333.001 154.136 333.761 153.421 334.692 153.421Z" fill="white" fill-opacity="0.4"/>
<path d="M336.458 155.047C336.384 155.958 335.621 156.673 334.692 156.673C333.764 156.673 333.001 155.958 332.927 155.047C332.921 155.097 332.918 155.144 332.918 155.195C332.918 156.174 333.713 156.969 334.692 156.969C335.671 156.969 336.467 156.174 336.467 155.195C336.467 155.144 336.464 155.097 336.458 155.047Z" fill="#212121" fill-opacity="0.1"/>
<path d="M366.923 177.378H324.93V177.674H366.923V177.378Z" fill="white" fill-opacity="0.05"/>
<path d="M366.923 177.082H324.93V177.378H366.923V177.082Z" fill="#1A237E" fill-opacity="0.05"/>
<path d="M358.21 158.449L355.918 156.154L358.426 153.646L362.048 158.449H358.21Z" fill="url(#paint4_linear)"/>
<path d="M357.169 156.674C358.149 156.674 358.943 155.879 358.943 154.899C358.943 153.919 358.149 153.125 357.169 153.125C356.189 153.125 355.395 153.919 355.395 154.899C355.395 155.879 356.189 156.674 357.169 156.674Z" fill="#EEEEEE"/>
<path d="M357.169 153.421C358.1 153.421 358.86 154.136 358.934 155.047C358.937 154.997 358.943 154.95 358.943 154.899C358.943 153.921 358.148 153.125 357.169 153.125C356.19 153.125 355.395 153.921 355.395 154.899C355.395 154.95 355.398 154.997 355.403 155.047C355.477 154.136 356.237 153.421 357.169 153.421Z" fill="white" fill-opacity="0.4"/>
<path d="M358.934 155.047C358.861 155.958 358.098 156.673 357.169 156.673C356.24 156.673 355.477 155.958 355.403 155.047C355.4 155.097 355.395 155.144 355.395 155.195C355.395 156.174 356.19 156.969 357.169 156.969C358.148 156.969 358.943 156.174 358.943 155.195C358.943 155.144 358.94 155.097 358.934 155.047Z" fill="#212121" fill-opacity="0.1"/>
<path d="M368.997 162C368.997 160.456 368.009 159.146 366.631 158.658V154.902C366.631 152.942 365.043 151.354 363.082 151.354H328.778C326.817 151.354 325.229 152.942 325.229 154.902L325.238 158.652C323.857 159.137 322.863 160.45 322.863 162C322.863 162.165 322.875 162.328 322.896 162.485L325.229 177.377L324.055 192.51C324.049 192.593 324.046 192.673 324.046 192.755C324.046 194.716 325.634 196.304 327.595 196.304H364.265C366.226 196.304 367.814 194.716 367.814 192.755C367.814 192.673 367.811 192.593 367.805 192.51L366.631 177.377L368.964 162.485C368.985 162.328 368.997 162.165 368.997 162Z" fill="url(#paint5_radial)" fill-opacity="0.05"/>
</g>
<g filter="url(#filter5_d)">
<rect x="7" y="28" width="124" height="123" rx="61.5" fill="white"/>
<path d="M68.5356 78.2077L54.7678 87.4154L68.5356 96.6232L54.7678 105.831L41 96.5734L54.7678 87.3657L41 78.2077L54.7678 69L68.5356 78.2077ZM54.6966 108.792L68.4644 99.5846L82.2322 108.792L68.4644 118L54.6966 108.792ZM68.5356 96.5734L82.3034 87.3657L68.5356 78.2077L82.2322 69L96 78.2077L82.2322 87.4154L96 96.6232L82.2322 105.831L68.5356 96.5734Z" fill="#0061FF"/>
</g>
<defs>
<filter id="filter0_d" x="237" y="528" width="194" height="193" filterUnits="userSpaceOnUse" color-interpolation-filters="sRGB">
<feFlood flood-opacity="0" result="BackgroundImageFix"/>
<feColorMatrix in="SourceAlpha" type="matrix" values="0 0 0 0 0 0 0 0 0 0 0 0 0 0 0 0 0 0 127 0"/>
<feOffset dy="7"/>
<feGaussianBlur stdDeviation="17.5"/>
<feColorMatrix type="matrix" values="0 0 0 0 0 0 0 0 0 0 0 0 0 0 0 0 0 0 0.06 0"/>
<feBlend mode="normal" in2="BackgroundImageFix" result="effect1_dropShadow"/>
<feBlend mode="normal" in="SourceGraphic" in2="effect1_dropShadow" result="shape"/>
</filter>
<filter id="filter1_d" x="222" y="733" width="194" height="193" filterUnits="userSpaceOnUse" color-interpolation-filters="sRGB">
<feFlood flood-opacity="0" result="BackgroundImageFix"/>
<feColorMatrix in="SourceAlpha" type="matrix" values="0 0 0 0 0 0 0 0 0 0 0 0 0 0 0 0 0 0 127 0"/>
<feOffset dy="7"/>
<feGaussianBlur stdDeviation="17.5"/>
<feColorMatrix type="matrix" values="0 0 0 0 0 0 0 0 0 0 0 0 0 0 0 0 0 0 0.06 0"/>
<feBlend mode="normal" in2="BackgroundImageFix" result="effect1_dropShadow"/>
<feBlend mode="normal" in="SourceGraphic" in2="effect1_dropShadow" result="shape"/>
</filter>
<filter id="filter2_d" x="-19" y="631" width="194" height="193" filterUnits="userSpaceOnUse" color-interpolation-filters="sRGB">
<feFlood flood-opacity="0" result="BackgroundImageFix"/>
<feColorMatrix in="SourceAlpha" type="matrix" values="0 0 0 0 0 0 0 0 0 0 0 0 0 0 0 0 0 0 127 0"/>
<feOffset dy="7"/>
<feGaussianBlur stdDeviation="17.5"/>
<feColorMatrix type="matrix" values="0 0 0 0 0 0 0 0 0 0 0 0 0 0 0 0 0 0 0.06 0"/>
<feBlend mode="normal" in2="BackgroundImageFix" result="effect1_dropShadow"/>
<feBlend mode="normal" in="SourceGraphic" in2="effect1_dropShadow" result="shape"/>
</filter>
<filter id="filter3_d" x="54" y="176" width="194" height="193" filterUnits="userSpaceOnUse" color-interpolation-filters="sRGB">
<feFlood flood-opacity="0" result="BackgroundImageFix"/>
<feColorMatrix in="SourceAlpha" type="matrix" values="0 0 0 0 0 0 0 0 0 0 0 0 0 0 0 0 0 0 127 0"/>
<feOffset dy="7"/>
<feGaussianBlur stdDeviation="17.5"/>
<feColorMatrix type="matrix" values="0 0 0 0 0 0 0 0 0 0 0 0 0 0 0 0 0 0 0.06 0"/>
<feBlend mode="normal" in2="BackgroundImageFix" result="effect1_dropShadow"/>
<feBlend mode="normal" in="SourceGraphic" in2="effect1_dropShadow" result="shape"/>
</filter>
<filter id="filter4_d" x="249" y="84" width="194" height="193" filterUnits="userSpaceOnUse" color-interpolation-filters="sRGB">
<feFlood flood-opacity="0" result="BackgroundImageFix"/>
<feColorMatrix in="SourceAlpha" type="matrix" values="0 0 0 0 0 0 0 0 0 0 0 0 0 0 0 0 0 0 127 0"/>
<feOffset dy="7"/>
<feGaussianBlur stdDeviation="17.5"/>
<feColorMatrix type="matrix" values="0 0 0 0 0 0 0 0 0 0 0 0 0 0 0 0 0 0 0.06 0"/>
<feBlend mode="normal" in2="BackgroundImageFix" result="effect1_dropShadow"/>
<feBlend mode="normal" in="SourceGraphic" in2="effect1_dropShadow" result="shape"/>
</filter>
<filter id="filter5_d" x="-28" y="0" width="194" height="193" filterUnits="userSpaceOnUse" color-interpolation-filters="sRGB">
<feFlood flood-opacity="0" result="BackgroundImageFix"/>
<feColorMatrix in="SourceAlpha" type="matrix" values="0 0 0 0 0 0 0 0 0 0 0 0 0 0 0 0 0 0 127 0"/>
<feOffset dy="7"/>
<feGaussianBlur stdDeviation="17.5"/>
<feColorMatrix type="matrix" values="0 0 0 0 0 0 0 0 0 0 0 0 0 0 0 0 0 0 0.06 0"/>
<feBlend mode="normal" in2="BackgroundImageFix" result="effect1_dropShadow"/>
<feBlend mode="normal" in="SourceGraphic" in2="effect1_dropShadow" result="shape"/>
</filter>
<linearGradient id="paint0_linear" x1="150.724" y1="263.64" x2="171.953" y2="284.877" gradientUnits="userSpaceOnUse">
<stop stop-color="#263238" stop-opacity="0.2"/>
<stop offset="1" stop-color="#263238" stop-opacity="0.02"/>
</linearGradient>
<radialGradient id="paint1_radial" cx="0" cy="0" r="1" gradientUnits="userSpaceOnUse" gradientTransform="translate(133.437 247.606) scale(50.127 50.1097)">
<stop stop-color="white" stop-opacity="0.1"/>
<stop offset="1" stop-color="white" stop-opacity="0"/>
</radialGradient>
<linearGradient id="paint2_linear" x1="335.966" y1="166.828" x2="355.355" y2="186.217" gradientUnits="userSpaceOnUse">
<stop stop-color="#1A237E" stop-opacity="0.2"/>
<stop offset="1" stop-color="#1A237E" stop-opacity="0.02"/>
</linearGradient>
<linearGradient id="paint3_linear" x1="334.666" y1="154.875" x2="336.966" y2="157.175" gradientUnits="userSpaceOnUse">
<stop stop-color="#212121" stop-opacity="0.2"/>
<stop offset="1" stop-color="#212121" stop-opacity="0.02"/>
</linearGradient>
<linearGradient id="paint4_linear" x1="357.142" y1="154.88" x2="359.159" y2="156.897" gradientUnits="userSpaceOnUse">
<stop stop-color="#212121" stop-opacity="0.2"/>
<stop offset="1" stop-color="#212121" stop-opacity="0.02"/>
</linearGradient>
<radialGradient id="paint5_radial" cx="0" cy="0" r="1" gradientUnits="userSpaceOnUse" gradientTransform="translate(326.031 152.347) scale(59.2175)">
<stop offset="0.33" stop-color="white"/>
<stop offset="1" stop-color="white" stop-opacity="0"/>
</radialGradient>
</defs>
</svg>
