<svg width="1792" height="1586" viewBox="0 0 1792 1586" fill="none" xmlns="http://www.w3.org/2000/svg">
<circle cx="873.999" cy="791.257" r="362.014" stroke="#D9D9D9"/>
<circle cx="875" cy="793" r="577.5" stroke="#D9D9D9"/>
<circle cx="874" cy="793" r="792.5" stroke="#D9D9D9"/>
<g filter="url(#filter0_d)">
<rect x="35" y="461" width="180" height="180" rx="90" fill="white"/>
<path fill-rule="evenodd" clip-rule="evenodd" d="M114.779 542.415C112.413 540.048 109.318 538.865 106.194 538.865C103.099 538.865 99.9744 540.048 97.6081 542.415C92.8754 547.147 92.8754 554.823 97.6081 559.586C102.341 564.318 110.016 564.318 114.779 559.586C119.512 554.853 119.512 547.147 114.779 542.415ZM111.351 556.158C108.499 559.009 103.888 559.009 101.067 556.158C98.2148 553.306 98.2148 548.695 101.067 545.873C103.918 543.021 108.529 543.021 111.351 545.873C114.172 548.695 114.172 553.306 111.351 556.158Z" fill="#2D8CFF"/>
<path fill-rule="evenodd" clip-rule="evenodd" d="M140.259 542.415C137.893 540.048 134.799 538.865 131.674 538.865C128.58 538.865 125.455 540.048 123.089 542.415C118.356 547.147 118.356 554.823 123.089 559.586C127.821 564.318 135.496 564.318 140.259 559.586C144.992 554.853 144.992 547.147 140.259 542.415ZM136.831 556.158C133.98 559.009 129.368 559.009 126.547 556.158C123.695 553.306 123.695 548.695 126.547 545.873C129.399 543.021 134.01 543.021 136.831 545.873C139.653 548.695 139.653 553.306 136.831 556.158Z" fill="#2D8CFF"/>
<path fill-rule="evenodd" clip-rule="evenodd" d="M75.854 563.074L77.0675 563.135H95.2698L95.2092 561.922C95.0575 559.919 93.6316 558.463 91.6294 558.342L90.4159 558.281H79.4944L94.0564 543.719L93.9957 542.506C93.9047 540.503 92.4181 539.017 90.4159 538.926L89.2024 538.865H71L71.0607 540.079C71.2124 542.051 72.6686 543.537 74.6405 543.659L75.854 543.719H86.7754L72.2135 558.281L72.2742 559.495C72.3955 561.497 73.8517 562.953 75.854 563.074Z" fill="#2D8CFF"/>
<path fill-rule="evenodd" clip-rule="evenodd" d="M158.918 546.146C159.343 546.874 159.464 547.663 159.525 548.573L159.585 549.787V558.281L159.646 559.495C159.767 561.467 161.224 562.953 163.226 563.074L164.439 563.135V549.787L164.5 548.573C164.561 547.663 164.682 546.844 165.107 546.116C165.956 544.66 167.503 543.719 169.293 543.719C171.083 543.719 172.661 544.69 173.51 546.146C173.935 546.874 174.056 547.693 174.087 548.573L174.147 549.787V558.281L174.208 559.495C174.329 561.497 175.785 562.953 177.788 563.074L179.001 563.135V549.787V548.573C179.001 543.203 174.663 538.865 169.293 538.865C166.381 538.865 163.802 540.139 162.012 542.142C160.222 540.139 157.644 538.865 154.731 538.865C152.729 538.865 150.848 539.472 149.301 540.534C148.361 539.472 146.237 538.865 145.023 538.865V563.135L146.237 563.074C148.27 562.953 149.726 561.497 149.817 559.495L149.877 558.281V549.787L149.938 548.573C149.999 547.663 150.12 546.844 150.545 546.146C151.394 544.69 152.941 543.719 154.731 543.719C156.521 543.719 158.099 544.69 158.918 546.146Z" fill="#2D8CFF"/>
</g>
<g filter="url(#filter1_d)">
<rect x="587" y="417" width="180" height="180" rx="90" fill="white"/>
<path d="M676.965 487.919L658.314 500.235L676.965 512.551L658.314 524.868L639.664 512.485L658.314 500.168L639.664 487.919L658.314 475.603L676.965 487.919ZM658.218 528.829L676.868 516.512L695.518 528.829L676.868 541.145L658.218 528.829ZM676.965 512.485L695.615 500.168L676.965 487.919L695.518 475.603L714.169 487.919L695.518 500.235L714.169 512.551L695.518 524.868L676.965 512.485Z" fill="#0061FF"/>
</g>
<g filter="url(#filter2_d)">
<rect x="255" y="892" width="180" height="180" rx="90" fill="white"/>
<path d="M378.352 977.015C378.352 958.823 363.585 944.067 345.393 944.067C327.2 944.067 312.434 958.823 312.434 977.015C312.434 994.25 328.158 1008.23 345.393 1008.23V1020.37C365.411 1010.21 378.352 993.876 378.352 977.015Z" fill="#00897B"/>
<path d="M365.774 965.095L361.451 977.015H337.591L328.016 988.75L363.11 1023.83H386.589V985.903L365.774 965.095Z" fill="url(#paint0_linear)"/>
<g opacity="0.2">
<path opacity="0.2" d="M345.393 1007.79C328.223 1007.79 312.564 993.929 312.44 976.783C312.44 976.86 312.434 976.938 312.434 977.015C312.434 994.25 328.158 1008.23 345.393 1008.23V1007.79ZM345.393 1019.93V1020.37C365.411 1010.21 378.352 993.875 378.352 977.015C378.352 976.944 378.346 976.872 378.346 976.807C378.233 993.584 365.322 1009.83 345.393 1019.93Z" fill="#263238"/>
</g>
<g opacity="0.2">
<path opacity="0.2" d="M352.763 990.018H331.08C329.968 990.018 328.861 989.595 328.011 988.745C327.161 987.895 326.738 986.789 326.738 985.678V986.112C326.738 987.223 327.161 988.329 328.011 989.179C328.861 990.029 329.968 990.452 331.08 990.452H352.763C353.875 990.452 354.981 990.029 355.832 989.179C356.676 988.335 357.105 987.223 357.105 986.112V985.678C357.105 986.789 356.682 987.895 355.832 988.745C354.981 989.595 353.869 990.018 352.763 990.018ZM357.099 980.702L365.77 989.37V988.936L357.099 980.268V980.702Z" fill="#263238"/>
</g>
<path d="M357.099 973.764V968.348C357.099 967.236 356.676 966.13 355.826 965.28C354.981 964.436 353.869 964.008 352.757 964.008H331.08C329.968 964.008 328.861 964.43 328.011 965.28C327.166 966.124 326.738 967.236 326.738 968.348V985.69C326.738 986.801 327.161 987.907 328.011 988.757C328.861 989.608 329.968 990.03 331.08 990.03H352.763C353.875 990.03 354.981 989.608 355.832 988.757C356.676 987.913 357.105 986.801 357.105 985.69V980.274L365.776 988.942V965.096L357.099 973.764Z" fill="#F5F5F5"/>
<path d="M326.75 968.348V977.016H365.775V965.096L357.104 973.764V968.348C357.104 967.236 356.682 966.13 355.832 965.28C354.987 964.436 353.875 964.008 352.763 964.008H331.085C329.973 964.008 328.867 964.43 328.017 965.28C327.172 966.124 326.75 967.236 326.75 968.348Z" fill="#E0E0E0"/>
<path d="M326.75 976.583H365.775V977.017H326.75V976.583Z" fill="#212121" fill-opacity="0.02"/>
<path d="M326.75 977.016H365.775V977.45H326.75V977.016Z" fill="white" fill-opacity="0.05"/>
<path opacity="0.2" d="M331.08 964.442H352.763C353.875 964.442 354.981 964.864 355.832 965.714C356.676 966.558 357.105 967.67 357.105 968.782V968.348C357.105 967.236 356.682 966.13 355.832 965.28C354.987 964.436 353.875 964.008 352.763 964.008H331.08C329.968 964.008 328.861 964.43 328.011 965.28C327.166 966.124 326.738 967.236 326.738 968.348V968.782C326.738 967.67 327.161 966.564 328.011 965.714C328.861 964.87 329.968 964.442 331.08 964.442ZM357.099 973.764V974.198L365.77 965.53V965.096L357.099 973.764Z" fill="white"/>
<path opacity="0.2" d="M345.393 944.501C363.514 944.501 378.233 959.138 378.346 977.235C378.346 977.158 378.352 977.087 378.352 977.009C378.352 958.817 363.585 944.062 345.393 944.062C327.2 944.062 312.434 958.823 312.434 977.015C312.434 977.087 312.44 977.152 312.44 977.217C312.564 959.132 327.278 944.501 345.393 944.501Z" fill="white"/>
<path d="M378.352 977.015C378.352 958.823 363.585 944.067 345.393 944.067C327.2 944.067 312.434 958.823 312.434 977.015C312.434 994.25 328.158 1008.23 345.393 1008.23V1020.37C365.411 1010.21 378.352 993.876 378.352 977.015Z" fill="url(#paint1_radial)"/>
</g>
<g filter="url(#filter3_d)">
<rect x="1260" y="1024" width="180" height="180" rx="90" fill="white"/>
<path d="M1337.44 1084.56H1362.29L1384.41 1123.18L1355.04 1114.11L1337.44 1084.56Z" fill="#FBCE4B"/>
<path d="M1355.04 1114.11L1360.93 1123.18H1384.41L1355.04 1114.11Z" fill="#DFB53D"/>
<path d="M1384.41 1123.17L1372.68 1143.81H1327.25L1349.69 1123.17H1384.41Z" fill="#3476DD"/>
<path d="M1339.42 1123.17L1327.25 1143.81L1349.69 1123.17H1339.42Z" fill="#055BD8"/>
<path d="M1327.25 1143.81L1315 1123.18L1337.44 1084.56L1344.69 1114.18L1339.42 1123.18L1327.25 1143.81Z" fill="#15A864"/>
<path d="M1337.44 1084.56L1344.69 1114.18L1349.69 1105.13L1337.44 1084.56Z" fill="#129155"/>
</g>
<g filter="url(#filter4_d)">
<rect x="1577" y="726" width="180" height="180" rx="90" fill="white"/>
<path d="M1674.51 824.332L1689.79 809.714C1686.62 797.332 1674.01 789.869 1661.63 793.045C1656.05 794.474 1651.21 797.931 1648.04 802.739C1648.28 802.733 1674.51 824.332 1674.51 824.332Z" fill="#0364B8"/>
<path d="M1658 805.492L1658 805.494C1655.08 803.685 1651.71 802.729 1648.28 802.733C1648.2 802.733 1648.12 802.738 1648.04 802.739C1637.82 802.866 1629.64 811.253 1629.76 821.473C1629.81 825.181 1630.97 828.789 1633.09 831.83L1655.99 828.961L1673.55 814.803L1658 805.492Z" fill="#0078D4"/>
<path d="M1689.79 809.715C1689.45 809.692 1689.12 809.677 1688.77 809.677C1686.72 809.675 1684.69 810.094 1682.81 810.907L1682.81 810.906L1673.55 814.804L1683.76 827.419L1702.02 831.857C1705.96 824.543 1703.22 815.42 1695.91 811.48C1694.02 810.462 1691.93 809.86 1689.79 809.715V809.715H1689.79Z" fill="#1490DF"/>
<path d="M1633.09 831.83C1636.55 836.802 1642.22 839.764 1648.28 839.761H1688.78C1694.31 839.763 1699.39 836.727 1702.02 831.857L1673.55 814.804L1633.09 831.83Z" fill="#28A8EA"/>
</g>
<g filter="url(#filter5_d)">
<rect x="1220" y="339" width="180" height="180" rx="90" fill="white"/>
<path d="M1334.63 396.832H1285.4C1282.59 396.832 1280.31 399.111 1280.31 401.925L1280.41 434.178H1339.72V401.925C1339.72 399.111 1337.44 396.832 1334.63 396.832Z" fill="#C2C2C2"/>
<path d="M1338.02 407.016H1282C1279.19 407.016 1276.91 409.295 1276.91 412.108C1276.91 412.346 1276.93 412.579 1276.96 412.804L1280.31 434.176H1339.72L1343.07 412.804C1343.1 412.575 1343.11 412.342 1343.11 412.108C1343.11 409.295 1340.83 407.016 1338.02 407.016Z" fill="#3367D6"/>
<path opacity="0.5" d="M1338.02 407.016H1282C1279.19 407.016 1276.91 409.295 1276.91 412.108C1276.91 412.346 1276.93 412.579 1276.96 412.804L1280.31 434.176H1339.72L1343.07 412.804C1343.1 412.575 1343.11 412.342 1343.11 412.108C1343.11 409.295 1340.83 407.016 1338.02 407.016Z" fill="#2A56C6"/>
<path d="M1341.4 455.893L1339.72 434.178H1280.3L1278.62 455.893C1278.61 456.012 1278.61 456.127 1278.61 456.246C1278.61 459.059 1280.88 461.338 1283.7 461.338H1336.32C1339.14 461.338 1341.41 459.059 1341.41 456.246C1341.41 456.127 1341.41 456.012 1341.4 455.893Z" fill="#4285F4"/>
<path d="M1280.31 434.179L1307.47 461.339H1341.42V434.179H1280.31Z" fill="url(#paint2_linear)"/>
<path d="M1282 407.442H1338.02C1340.78 407.442 1343.02 409.632 1343.11 412.365C1343.11 412.28 1343.11 412.195 1343.11 412.11C1343.11 409.296 1340.83 407.018 1338.02 407.018H1282C1279.19 407.018 1276.91 409.297 1276.91 412.11C1276.91 412.195 1276.91 412.28 1276.92 412.365C1277.01 409.632 1279.25 407.442 1282 407.442Z" fill="white" fill-opacity="0.2"/>
<path d="M1336.32 460.913H1283.7C1280.94 460.913 1278.7 458.723 1278.61 455.99C1278.61 456.075 1278.61 456.16 1278.61 456.245C1278.61 459.059 1280.88 461.337 1283.7 461.337H1336.32C1339.14 461.337 1341.41 459.058 1341.41 456.245C1341.41 456.16 1341.41 456.075 1341.41 455.99C1341.32 458.723 1339.08 460.913 1336.32 460.913Z" fill="#1A237E" fill-opacity="0.2"/>
<path d="M1334.63 396.832H1285.4C1282.59 396.832 1280.31 399.111 1280.31 401.925V402.328C1280.32 399.527 1282.6 397.256 1285.4 397.256H1334.63C1337.44 397.256 1339.72 399.535 1339.72 402.349V401.925C1339.72 399.111 1337.44 396.832 1334.63 396.832Z" fill="white" fill-opacity="0.2"/>
<path d="M1305.02 433.813C1306.95 433.015 1309.44 430.893 1309.44 427.698C1309.44 422.775 1306.28 419.749 1300.95 419.749C1296.21 419.749 1292.39 422.855 1292.32 427.388H1295.76C1295.81 424.74 1297.61 422.563 1300.95 422.563C1304.17 422.563 1305.99 424.239 1305.99 427.621C1305.99 431.004 1303.4 432.565 1300.24 432.565C1299 432.565 1297.83 432.565 1297.83 432.565V435.265C1297.83 435.265 1299.17 435.265 1300.24 435.265C1304.88 435.265 1306.41 437.675 1306.41 440.472C1306.41 444.13 1304.19 445.819 1300.97 445.819C1298.16 445.819 1295.61 444.321 1295.53 440.972H1292.06C1292.21 446.366 1296.75 448.611 1300.97 448.611C1305.84 448.611 1309.86 445.772 1309.86 440.395C1309.87 436.058 1306.78 434.326 1305.02 433.813ZM1324.72 419.749L1314.67 423.356V426.599L1321.89 424.188V448.607H1325.28V419.749H1324.72Z" fill="#E1E1E1"/>
<g opacity="0.5">
<path opacity="0.5" d="M1305.02 433.813C1306.95 433.015 1309.44 430.893 1309.44 427.698C1309.44 422.775 1306.28 419.749 1300.95 419.749C1296.21 419.749 1292.39 422.855 1292.32 427.388H1295.76C1295.81 424.74 1297.61 422.563 1300.95 422.563C1304.17 422.563 1305.99 424.239 1305.99 427.621C1305.99 431.004 1303.4 432.565 1300.24 432.565C1299 432.565 1297.83 432.565 1297.83 432.565V435.265C1297.83 435.265 1299.17 435.265 1300.24 435.265C1304.88 435.265 1306.41 437.675 1306.41 440.472C1306.41 444.13 1304.19 445.819 1300.97 445.819C1298.16 445.819 1295.61 444.321 1295.53 440.972H1292.06C1292.21 446.366 1296.75 448.611 1300.97 448.611C1305.84 448.611 1309.86 445.772 1309.86 440.395C1309.87 436.058 1306.78 434.326 1305.02 433.813ZM1324.72 419.749L1314.67 423.356V426.599L1321.89 424.188V448.607H1325.28V419.749H1324.72Z" fill="#C2C2C2"/>
</g>
<path d="M1305.03 433.813C1306.96 433.015 1309.45 430.893 1309.45 427.698C1309.45 422.775 1306.28 419.749 1300.96 419.749C1296.21 419.749 1292.39 422.855 1292.32 427.388H1295.77C1295.82 424.74 1297.61 422.563 1300.95 422.563C1304.17 422.563 1305.99 424.239 1305.99 427.621C1305.99 431.004 1303.4 432.565 1300.24 432.565C1299.01 432.565 1297.84 432.565 1297.84 432.565V435.265C1297.84 435.265 1299.17 435.265 1300.24 435.265C1304.89 435.265 1306.42 437.675 1306.42 440.472C1306.42 444.13 1304.19 445.819 1300.97 445.819C1298.17 445.819 1295.61 444.321 1295.53 440.972H1292.06C1292.21 446.366 1296.75 448.611 1300.97 448.611C1305.84 448.611 1309.86 445.772 1309.86 440.395C1309.87 436.058 1306.78 434.326 1305.03 433.813ZM1324.73 419.749L1314.68 423.356V426.599L1321.89 424.188V448.607H1325.29V419.749H1324.73Z" fill="#EEEEEE"/>
<path d="M1295.37 407.016L1292.09 403.723L1295.68 400.124L1302.58 407.016H1295.37Z" fill="url(#paint3_linear)"/>
<path d="M1293.89 404.47C1295.29 404.47 1296.43 403.33 1296.43 401.923C1296.43 400.517 1295.29 399.377 1293.89 399.377C1292.48 399.377 1291.34 400.517 1291.34 401.923C1291.34 403.33 1292.48 404.47 1293.89 404.47Z" fill="#EEEEEE"/>
<path d="M1293.89 399.801C1295.22 399.801 1296.31 400.828 1296.42 402.135C1296.43 402.063 1296.43 401.995 1296.43 401.923C1296.43 400.519 1295.29 399.377 1293.89 399.377C1292.48 399.377 1291.34 400.519 1291.34 401.923C1291.34 401.995 1291.34 402.063 1291.35 402.135C1291.46 400.828 1292.55 399.801 1293.89 399.801Z" fill="white" fill-opacity="0.4"/>
<path d="M1296.42 402.136C1296.31 403.443 1295.22 404.47 1293.89 404.47C1292.55 404.47 1291.46 403.443 1291.35 402.136C1291.34 402.208 1291.34 402.276 1291.34 402.348C1291.34 403.753 1292.48 404.894 1293.89 404.894C1295.29 404.894 1296.43 403.753 1296.43 402.348C1296.43 402.276 1296.43 402.208 1296.42 402.136Z" fill="#212121" fill-opacity="0.1"/>
<path d="M1340.15 434.178H1279.88V434.602H1340.15V434.178Z" fill="white" fill-opacity="0.05"/>
<path d="M1340.15 433.754H1279.88V434.178H1340.15V433.754Z" fill="#1A237E" fill-opacity="0.05"/>
<path d="M1327.63 407.017L1324.34 403.724L1327.94 400.125L1333.14 407.017H1327.63Z" fill="url(#paint4_linear)"/>
<path d="M1326.14 404.471C1327.55 404.471 1328.69 403.331 1328.69 401.924C1328.69 400.518 1327.55 399.378 1326.14 399.378C1324.73 399.378 1323.59 400.518 1323.59 401.924C1323.59 403.331 1324.73 404.471 1326.14 404.471Z" fill="#EEEEEE"/>
<path d="M1326.14 399.802C1327.48 399.802 1328.57 400.829 1328.67 402.136C1328.68 402.064 1328.69 401.996 1328.69 401.924C1328.69 400.52 1327.54 399.378 1326.14 399.378C1324.74 399.378 1323.59 400.52 1323.59 401.924C1323.59 401.996 1323.6 402.064 1323.61 402.136C1323.71 400.829 1324.8 399.802 1326.14 399.802Z" fill="white" fill-opacity="0.4"/>
<path d="M1328.67 402.136C1328.57 403.443 1327.47 404.47 1326.14 404.47C1324.81 404.47 1323.71 403.443 1323.61 402.136C1323.6 402.208 1323.59 402.276 1323.59 402.348C1323.59 403.753 1324.74 404.894 1326.14 404.894C1327.54 404.894 1328.69 403.753 1328.69 402.348C1328.69 402.276 1328.68 402.208 1328.67 402.136Z" fill="#212121" fill-opacity="0.1"/>
<path d="M1343.11 412.11C1343.11 409.895 1341.7 408.014 1339.72 407.314V401.925C1339.72 399.111 1337.44 396.832 1334.63 396.832H1285.4C1282.58 396.832 1280.31 399.111 1280.31 401.925L1280.32 407.306C1278.34 408.002 1276.91 409.886 1276.91 412.11C1276.91 412.347 1276.93 412.581 1276.96 412.806L1280.31 434.178L1278.62 455.893C1278.61 456.012 1278.61 456.127 1278.61 456.246C1278.61 459.059 1280.89 461.338 1283.7 461.338H1336.32C1339.14 461.338 1341.42 459.059 1341.42 456.246C1341.42 456.127 1341.41 456.012 1341.4 455.893L1339.72 434.178L1343.07 412.806C1343.1 412.581 1343.11 412.347 1343.11 412.11Z" fill="url(#paint5_radial)" fill-opacity="0.05"/>
</g>
<defs>
<filter id="filter0_d" x="0" y="433" width="250" height="250" filterUnits="userSpaceOnUse" color-interpolation-filters="sRGB">
<feFlood flood-opacity="0" result="BackgroundImageFix"/>
<feColorMatrix in="SourceAlpha" type="matrix" values="0 0 0 0 0 0 0 0 0 0 0 0 0 0 0 0 0 0 127 0"/>
<feOffset dy="7"/>
<feGaussianBlur stdDeviation="17.5"/>
<feColorMatrix type="matrix" values="0 0 0 0 0 0 0 0 0 0 0 0 0 0 0 0 0 0 0.06 0"/>
<feBlend mode="normal" in2="BackgroundImageFix" result="effect1_dropShadow"/>
<feBlend mode="normal" in="SourceGraphic" in2="effect1_dropShadow" result="shape"/>
</filter>
<filter id="filter1_d" x="552" y="389" width="250" height="250" filterUnits="userSpaceOnUse" color-interpolation-filters="sRGB">
<feFlood flood-opacity="0" result="BackgroundImageFix"/>
<feColorMatrix in="SourceAlpha" type="matrix" values="0 0 0 0 0 0 0 0 0 0 0 0 0 0 0 0 0 0 127 0"/>
<feOffset dy="7"/>
<feGaussianBlur stdDeviation="17.5"/>
<feColorMatrix type="matrix" values="0 0 0 0 0 0 0 0 0 0 0 0 0 0 0 0 0 0 0.06 0"/>
<feBlend mode="normal" in2="BackgroundImageFix" result="effect1_dropShadow"/>
<feBlend mode="normal" in="SourceGraphic" in2="effect1_dropShadow" result="shape"/>
</filter>
<filter id="filter2_d" x="220" y="864" width="250" height="250" filterUnits="userSpaceOnUse" color-interpolation-filters="sRGB">
<feFlood flood-opacity="0" result="BackgroundImageFix"/>
<feColorMatrix in="SourceAlpha" type="matrix" values="0 0 0 0 0 0 0 0 0 0 0 0 0 0 0 0 0 0 127 0"/>
<feOffset dy="7"/>
<feGaussianBlur stdDeviation="17.5"/>
<feColorMatrix type="matrix" values="0 0 0 0 0 0 0 0 0 0 0 0 0 0 0 0 0 0 0.06 0"/>
<feBlend mode="normal" in2="BackgroundImageFix" result="effect1_dropShadow"/>
<feBlend mode="normal" in="SourceGraphic" in2="effect1_dropShadow" result="shape"/>
</filter>
<filter id="filter3_d" x="1225" y="996" width="250" height="250" filterUnits="userSpaceOnUse" color-interpolation-filters="sRGB">
<feFlood flood-opacity="0" result="BackgroundImageFix"/>
<feColorMatrix in="SourceAlpha" type="matrix" values="0 0 0 0 0 0 0 0 0 0 0 0 0 0 0 0 0 0 127 0"/>
<feOffset dy="7"/>
<feGaussianBlur stdDeviation="17.5"/>
<feColorMatrix type="matrix" values="0 0 0 0 0 0 0 0 0 0 0 0 0 0 0 0 0 0 0.06 0"/>
<feBlend mode="normal" in2="BackgroundImageFix" result="effect1_dropShadow"/>
<feBlend mode="normal" in="SourceGraphic" in2="effect1_dropShadow" result="shape"/>
</filter>
<filter id="filter4_d" x="1542" y="698" width="250" height="250" filterUnits="userSpaceOnUse" color-interpolation-filters="sRGB">
<feFlood flood-opacity="0" result="BackgroundImageFix"/>
<feColorMatrix in="SourceAlpha" type="matrix" values="0 0 0 0 0 0 0 0 0 0 0 0 0 0 0 0 0 0 127 0"/>
<feOffset dy="7"/>
<feGaussianBlur stdDeviation="17.5"/>
<feColorMatrix type="matrix" values="0 0 0 0 0 0 0 0 0 0 0 0 0 0 0 0 0 0 0.06 0"/>
<feBlend mode="normal" in2="BackgroundImageFix" result="effect1_dropShadow"/>
<feBlend mode="normal" in="SourceGraphic" in2="effect1_dropShadow" result="shape"/>
</filter>
<filter id="filter5_d" x="1185" y="311" width="250" height="250" filterUnits="userSpaceOnUse" color-interpolation-filters="sRGB">
<feFlood flood-opacity="0" result="BackgroundImageFix"/>
<feColorMatrix in="SourceAlpha" type="matrix" values="0 0 0 0 0 0 0 0 0 0 0 0 0 0 0 0 0 0 127 0"/>
<feOffset dy="7"/>
<feGaussianBlur stdDeviation="17.5"/>
<feColorMatrix type="matrix" values="0 0 0 0 0 0 0 0 0 0 0 0 0 0 0 0 0 0 0.06 0"/>
<feBlend mode="normal" in2="BackgroundImageFix" result="effect1_dropShadow"/>
<feBlend mode="normal" in="SourceGraphic" in2="effect1_dropShadow" result="shape"/>
</filter>
<linearGradient id="paint0_linear" x1="345.035" y1="975.061" x2="373.536" y2="1003.57" gradientUnits="userSpaceOnUse">
<stop stop-color="#263238" stop-opacity="0.2"/>
<stop offset="1" stop-color="#263238" stop-opacity="0.02"/>
</linearGradient>
<radialGradient id="paint1_radial" cx="0" cy="0" r="1" gradientUnits="userSpaceOnUse" gradientTransform="translate(321.831 953.534) scale(67.2977 67.2745)">
<stop stop-color="white" stop-opacity="0.1"/>
<stop offset="1" stop-color="white" stop-opacity="0"/>
</radialGradient>
<linearGradient id="paint2_linear" x1="1295.72" y1="419.041" x2="1323.54" y2="446.866" gradientUnits="userSpaceOnUse">
<stop stop-color="#1A237E" stop-opacity="0.2"/>
<stop offset="1" stop-color="#1A237E" stop-opacity="0.02"/>
</linearGradient>
<linearGradient id="paint3_linear" x1="1293.84" y1="401.889" x2="1297.14" y2="405.191" gradientUnits="userSpaceOnUse">
<stop stop-color="#212121" stop-opacity="0.2"/>
<stop offset="1" stop-color="#212121" stop-opacity="0.02"/>
</linearGradient>
<linearGradient id="paint4_linear" x1="1326.1" y1="401.895" x2="1328.99" y2="404.79" gradientUnits="userSpaceOnUse">
<stop stop-color="#212121" stop-opacity="0.2"/>
<stop offset="1" stop-color="#212121" stop-opacity="0.02"/>
</linearGradient>
<radialGradient id="paint5_radial" cx="0" cy="0" r="1" gradientUnits="userSpaceOnUse" gradientTransform="translate(1281.46 398.257) scale(84.9797)">
<stop offset="0.33" stop-color="white"/>
<stop offset="1" stop-color="white" stop-opacity="0"/>
</radialGradient>
</defs>
</svg>
