<svg width="148" height="36" viewBox="0 0 148 36" fill="none" xmlns="http://www.w3.org/2000/svg">
<path d="M19.0224 0H39.5L36.8168 11.1996H16.3391L19.0224 0Z" fill="#FF2C2C"/>
<path d="M23.5913 5.38576C23.7847 5.46313 23.933 5.57919 24.0362 5.73394C24.1437 5.88439 24.1974 6.06922 24.1974 6.28845C24.1974 6.75699 24.0126 7.11162 23.6429 7.35234C23.2732 7.59306 22.781 7.71341 22.1663 7.71341H19.8L20.7027 3.19995H22.8821C23.3678 3.19995 23.7418 3.29022 24.004 3.47076C24.2662 3.647 24.3973 3.90061 24.3973 4.2316C24.3973 4.50671 24.3242 4.74313 24.1781 4.94086C24.0362 5.13429 23.8406 5.28259 23.5913 5.38576ZM21.5796 3.98658L21.3668 5.05047H22.4307C22.7058 5.05047 22.9186 4.99674 23.069 4.88928C23.2238 4.77751 23.3012 4.61847 23.3012 4.41214C23.3012 4.12844 23.0798 3.98658 22.637 3.98658H21.5796ZM22.2308 6.92678C22.5231 6.92678 22.7509 6.8709 22.9143 6.75914C23.0776 6.64738 23.1593 6.48618 23.1593 6.27555C23.1593 5.96606 22.9336 5.81131 22.4823 5.81131H21.2185L20.9993 6.92678H22.2308Z" fill="white"/>
<path d="M28.4313 5.72104C28.4313 5.88009 28.412 6.05633 28.3733 6.24976H25.7168C25.7512 6.7226 26.05 6.95902 26.6131 6.95902C26.7893 6.95902 26.9569 6.93108 27.116 6.8752C27.2793 6.81932 27.4212 6.7398 27.5415 6.63663L27.9607 7.30075C27.7672 7.4555 27.5458 7.57156 27.2965 7.64894C27.0472 7.72631 26.785 7.765 26.5099 7.765C26.1531 7.765 25.8393 7.70267 25.5685 7.57801C25.302 7.44905 25.0957 7.26637 24.9495 7.02995C24.8077 6.79353 24.7368 6.52057 24.7368 6.21108C24.7368 5.82851 24.8227 5.48462 24.9947 5.17943C25.1709 4.86993 25.4138 4.62921 25.7233 4.45727C26.0328 4.28103 26.3852 4.19291 26.7807 4.19291C27.116 4.19291 27.4061 4.25524 27.6512 4.3799C27.9005 4.50456 28.0918 4.68295 28.225 4.91507C28.3626 5.14719 28.4313 5.41585 28.4313 5.72104ZM26.7356 4.94731C26.4992 4.94731 26.2993 5.01178 26.1359 5.14074C25.9726 5.2654 25.8565 5.43949 25.7877 5.66301H27.5093C27.5093 5.43949 27.4384 5.2654 27.2965 5.14074C27.159 5.01178 26.972 4.94731 26.7356 4.94731Z" fill="white"/>
<path d="M30.0815 6.48833C30.0729 6.52272 30.0686 6.57 30.0686 6.63018C30.0686 6.85371 30.1911 6.96547 30.4362 6.96547C30.5694 6.96547 30.7048 6.92463 30.8424 6.84296L30.9907 7.55867C30.7671 7.69622 30.4791 7.765 30.1267 7.765C29.8 7.765 29.5378 7.67903 29.34 7.50708C29.1423 7.33514 29.0434 7.09872 29.0434 6.79783C29.0434 6.71186 29.0542 6.61084 29.0757 6.49478L29.3529 5.09561H28.8178L28.9725 4.32187H29.5077L29.6753 3.47721H30.6812L30.5135 4.32187H31.3775L31.2228 5.09561H30.3588L30.0815 6.48833Z" fill="white"/>
<path d="M35.62 4.2445L34.9301 7.71341H33.9758L34.0403 7.37168C33.7523 7.63389 33.3977 7.765 32.9764 7.765C32.7056 7.765 32.4563 7.70267 32.2285 7.57801C32.0006 7.45335 31.8179 7.27496 31.6804 7.04284C31.5471 6.80642 31.4805 6.52917 31.4805 6.21108C31.4805 5.82851 31.5643 5.48462 31.732 5.17943C31.9039 4.86993 32.136 4.62921 32.4283 4.45727C32.7206 4.28103 33.043 4.19291 33.3955 4.19291C33.9285 4.19291 34.3046 4.367 34.5239 4.71518L34.6141 4.2445H35.62ZM33.2859 6.93323C33.4836 6.93323 33.6599 6.88595 33.8146 6.79138C33.9694 6.69251 34.0897 6.55711 34.1757 6.38517C34.2617 6.21322 34.3046 6.01549 34.3046 5.79197C34.3046 5.55555 34.2337 5.36856 34.0919 5.23101C33.9543 5.09346 33.7609 5.02468 33.5116 5.02468C33.3138 5.02468 33.1376 5.07411 32.9828 5.17298C32.8281 5.26755 32.7077 5.4008 32.6218 5.57274C32.5358 5.74468 32.4928 5.94242 32.4928 6.16594C32.4928 6.40236 32.5616 6.58935 32.6991 6.7269C32.841 6.86445 33.0366 6.93323 33.2859 6.93323Z" fill="white"/>
<path d="M25.8798 21.5507C23.9764 29.2912 14.9279 35.5692 7.18741 35.5692L9.12335 27.6904C3.22281 26.2783 -1.29818 20.695 0.338422 14.025C2.2467 6.27634 11.2936 0 19.0373 0L17.0997 7.87878C23.0003 9.29088 27.5213 14.8758 25.8798 21.5507Z" fill="url(#paint0_linear)"/>
<path d="M21.6825 16.0321L9.12497 27.6901H9.12334L11.1292 19.5347H4.54053L17.0981 7.87842L15.0938 16.0321H21.6825Z" fill="white"/>
<path d="M38.8454 27.0878C37.7027 26.6254 36.7658 25.9578 36.04 25.0875L38.9818 21.7371C39.9985 23.0105 41.0975 23.646 42.2763 23.646C43.0562 23.646 43.6507 23.4185 44.0599 22.966C44.4692 22.5135 44.6725 21.8509 44.6725 20.9781V13.103H38.081V9.09741H50.0105V20.6616C50.0105 23.0352 49.3877 24.813 48.1445 25.9998C46.9014 27.1867 45.0714 27.7801 42.6572 27.7801C41.2597 27.7801 39.9882 27.5477 38.8454 27.0878Z" fill="#0F1B28"/>
<path d="M66.681 21.5791H55.9509C56.1696 22.3109 56.5917 22.8747 57.2172 23.2678C57.8426 23.661 58.6276 23.8563 59.5722 23.8563C60.28 23.8563 61.5077 23.4829 62.0585 22.6423L66.2563 23.7475C64.7738 26.5934 62.1691 27.6517 59.41 27.6517C57.6856 27.6517 56.1696 27.3376 54.8621 26.7096C53.5547 26.0816 52.5432 25.2088 51.8251 24.0936C51.107 22.9785 50.7492 21.7126 50.7492 20.3007C50.7492 18.9062 51.0993 17.6551 51.7968 16.5449C52.4968 15.4372 53.462 14.5693 54.6974 13.9413C55.9328 13.3133 57.3201 12.9993 58.8644 12.9993C60.334 12.9993 61.6698 13.291 62.8692 13.877C64.0686 14.4606 65.0157 15.3086 65.7158 16.4139C66.4133 17.5191 66.9615 19.1782 66.681 21.5791ZM56.8903 17.1828C56.3549 17.618 56.0152 18.2114 55.8685 18.9631H61.9143C61.7676 18.2139 61.4279 17.6205 60.8925 17.1828C60.3572 16.7477 59.6906 16.5276 58.8901 16.5276C58.0922 16.5301 57.4256 16.7477 56.8903 17.1828Z" fill="#0F1B28"/>
<path d="M115.55 21.5791H104.82C105.038 22.3109 105.46 22.8747 106.086 23.2678C106.711 23.661 107.496 23.8563 108.441 23.8563C109.149 23.8563 110.376 23.4829 110.927 22.6423L115.125 23.7475C113.642 26.5934 111.038 27.6517 108.279 27.6517C106.554 27.6517 105.038 27.3376 103.731 26.7096C102.423 26.0816 101.412 25.2088 100.694 24.0936C99.9756 22.9785 99.6179 21.7126 99.6179 20.3007C99.6179 18.9062 99.9679 17.6551 100.665 16.5449C101.365 15.4372 102.331 14.5693 103.566 13.9413C104.801 13.3133 106.189 12.9993 107.733 12.9993C109.203 12.9993 110.538 13.291 111.738 13.877C112.937 14.4606 113.884 15.3086 114.585 16.4139C115.282 17.5191 115.83 19.1782 115.55 21.5791ZM105.756 17.1828C105.221 17.618 104.881 18.2114 104.735 18.9631H110.78C110.634 18.2139 110.294 17.6205 109.759 17.1828C109.223 16.7477 108.557 16.5276 107.756 16.5276C106.961 16.5301 106.292 16.7477 105.756 17.1828Z" fill="#0F1B28"/>
<path d="M78.8937 26.8385C78.4587 27.1006 77.9259 27.3009 77.3005 27.4394C76.6751 27.5778 76.0059 27.6495 75.2981 27.6495C73.3729 27.6495 71.893 27.197 70.8583 26.2896C69.8237 25.3822 69.3063 24.0297 69.3063 22.2346V17.4725H67.1546V13.7562H69.3063V10.0671H74.4822V13.7562H77.859V17.4725H74.4822V22.1827C74.4822 22.6896 74.6238 23.0852 74.9043 23.372C75.1849 23.6588 75.5632 23.8047 76.0342 23.8047C77.3649 23.8047 78.2348 23.4758 78.8937 23.1445V26.8385V26.8385Z" fill="#0F1B28"/>
<path d="M80.0699 9.09741H88.3086C90.3959 9.09741 92.2491 9.47324 93.8654 10.2224C95.4818 10.9716 96.7352 12.0373 97.6232 13.4145C98.5137 14.7917 98.959 16.4063 98.959 18.2558C98.959 20.1053 98.5137 21.7174 97.6232 23.0971C96.7326 24.4743 95.4792 25.5399 93.8654 26.2891C92.2491 27.0383 90.3959 27.4142 88.3086 27.4142H80.0699V9.09741ZM88.0924 23.28C89.7268 23.28 91.0368 22.835 92.0277 21.9448C93.0161 21.0547 93.5128 19.8259 93.5128 18.2558C93.5128 16.6857 93.0186 15.4568 92.0277 14.5667C91.0368 13.6766 89.7268 13.2315 88.0924 13.2315H85.4645V23.28H88.0924Z" fill="#0F1B28"/>
<path d="M119.199 27.2437C118 26.9742 117.233 26.6206 116.507 26.183V22.0241C117.179 22.4247 119.336 23.5027 120.262 23.7376C121.189 23.9725 122.105 24.0912 123.014 24.0912C123.848 24.0912 124.445 24.0096 124.797 23.8439C125.153 23.6783 125.328 23.4384 125.328 23.1244C125.328 22.8104 125.114 22.5879 124.687 22.4568C124.259 22.3258 123.582 22.1997 122.659 22.0785C121.477 21.9401 120.476 21.7571 119.65 21.5296C118.824 21.3021 118.111 20.8843 117.511 20.2735C116.911 19.6628 116.613 18.8073 116.613 17.7095C116.613 16.8021 116.893 15.996 117.457 15.2889C118.021 14.5817 118.842 14.0254 119.923 13.6149C121.004 13.2045 122.296 12.9993 123.804 12.9993C124.875 12.9993 128.02 13.2762 129.245 14.2034V17.9889C127.937 17.2916 125.356 16.5301 123.832 16.5301C123.016 16.5301 122.417 16.6216 122.036 16.8045C121.655 16.9875 121.464 17.2273 121.464 17.5241C121.464 17.8554 121.673 18.0878 122.09 18.2164C122.507 18.3474 123.196 18.4834 124.159 18.6219C125.376 18.7974 126.383 18.9977 127.183 19.2227C127.981 19.4502 128.676 19.8631 129.268 20.4664C129.857 21.0672 130.153 21.9104 130.153 22.9909C130.153 23.881 129.873 24.6797 129.309 25.3843C128.746 26.0915 127.914 26.6453 126.818 27.0459C125.719 27.4465 124.398 27.6467 122.854 27.6467C121.614 27.6492 120.396 27.5132 119.199 27.2437Z" fill="#0F1B28"/>
<path d="M137.597 22.4422L136.07 23.9332V27.4121H130.895V8H136.07V18.1771L141.354 13.2319H147.483L141.354 19.3021L148 27.4121H141.735L137.597 22.4422Z" fill="#0F1B28"/>
<defs>
<linearGradient id="paint0_linear" x1="26.2198" y1="17.7846" x2="0.00329401" y2="17.7846" gradientUnits="userSpaceOnUse">
<stop stop-color="#2A82E9"/>
<stop offset="1" stop-color="#4937E8"/>
</linearGradient>
</defs>
</svg>
