<svg width="148" height="36" viewBox="0 0 148 36" fill="none" xmlns="http://www.w3.org/2000/svg">
<path d="M19.0224 0H45.5L42.8168 11.1996H16.3391L19.0224 0Z" fill="#FF2C2C"/>
<path d="M25.5499 5.23847C25.7923 5.33541 25.9781 5.48082 26.1073 5.67469C26.2419 5.86318 26.3093 6.09475 26.3093 6.36941C26.3093 6.95642 26.0777 7.40071 25.6145 7.70229C25.1514 8.00388 24.5348 8.15467 23.7647 8.15467H20.8L21.9309 2.5H24.6613C25.2699 2.5 25.7384 2.61309 26.0669 2.83928C26.3954 3.06008 26.5597 3.37782 26.5597 3.7925C26.5597 4.13716 26.4681 4.43336 26.285 4.68109C26.1073 4.92343 25.8623 5.10923 25.5499 5.23847ZM23.0296 3.48553L22.763 4.81841H24.0959C24.4405 4.81841 24.7071 4.7511 24.8956 4.61646C25.0895 4.47644 25.1864 4.27718 25.1864 4.01868C25.1864 3.66325 24.9091 3.48553 24.3544 3.48553H23.0296ZM23.8454 7.16914C24.2117 7.16914 24.4971 7.09913 24.7017 6.95911C24.9064 6.81909 25.0087 6.61714 25.0087 6.35325C25.0087 5.9655 24.726 5.77163 24.1605 5.77163H22.5772L22.3025 7.16914H23.8454Z" fill="white"/>
<path d="M31.6137 5.65854C31.6137 5.8578 31.5895 6.0786 31.541 6.32094H28.2129C28.2559 6.91333 28.6302 7.20953 29.3357 7.20953C29.5565 7.20953 29.7665 7.17453 29.9658 7.10452C30.1704 7.0345 30.3482 6.93487 30.499 6.80563L31.024 7.63767C30.7817 7.83154 30.5043 7.97695 30.192 8.07389C29.8796 8.17082 29.5511 8.21929 29.2065 8.21929C28.7595 8.21929 28.3663 8.1412 28.0271 7.98503C27.6932 7.82347 27.4347 7.59459 27.2516 7.29839C27.0738 7.00219 26.985 6.66022 26.985 6.27247C26.985 5.79317 27.0927 5.36234 27.3081 4.97998C27.5289 4.59223 27.8332 4.29064 28.2209 4.07523C28.6087 3.85443 29.0503 3.74403 29.5457 3.74403C29.9658 3.74403 30.3293 3.82212 30.6363 3.97829C30.9486 4.13447 31.1883 4.35796 31.3552 4.64877C31.5276 4.93959 31.6137 5.27617 31.6137 5.65854ZM29.4892 4.68916C29.193 4.68916 28.9426 4.76995 28.7379 4.93151C28.5333 5.08768 28.3879 5.30579 28.3017 5.58583H30.4586C30.4586 5.30579 30.3697 5.08768 30.192 4.93151C30.0197 4.76995 29.7854 4.68916 29.4892 4.68916Z" fill="white"/>
<path d="M33.6812 6.61983C33.6704 6.66291 33.665 6.72215 33.665 6.79755C33.665 7.07759 33.8185 7.21761 34.1255 7.21761C34.2924 7.21761 34.462 7.16645 34.6344 7.06412L34.8202 7.96079C34.5401 8.13313 34.1793 8.21929 33.7377 8.21929C33.3284 8.21929 32.9999 8.11158 32.7522 7.89617C32.5045 7.68075 32.3806 7.38456 32.3806 7.00758C32.3806 6.89987 32.3941 6.77331 32.421 6.62791L32.7683 4.87496H32.0979L32.2917 3.90559H32.9622L33.1722 2.84736H34.4324L34.2224 3.90559H35.3049L35.111 4.87496H34.0285L33.6812 6.61983Z" fill="white"/>
<path d="M40.62 3.80865L39.7556 8.15467H38.5601L38.6409 7.72653C38.28 8.05504 37.8357 8.21929 37.308 8.21929C36.9687 8.21929 36.6563 8.1412 36.3709 7.98503C36.0855 7.82885 35.8566 7.60536 35.6843 7.31455C35.5173 7.01835 35.4339 6.67099 35.4339 6.27247C35.4339 5.79317 35.5389 5.36234 35.7489 4.97998C35.9643 4.59223 36.2551 4.29064 36.6213 4.07523C36.9875 3.85443 37.3915 3.74403 37.8331 3.74403C38.5008 3.74403 38.9721 3.96214 39.2467 4.39835L39.3598 3.80865H40.62ZM37.6957 7.17722C37.9435 7.17722 38.1643 7.11798 38.3581 6.9995C38.552 6.87564 38.7028 6.706 38.8105 6.49058C38.9182 6.27516 38.9721 6.02744 38.9721 5.74739C38.9721 5.4512 38.8832 5.21693 38.7055 5.0446C38.5332 4.87227 38.2908 4.7861 37.9785 4.7861C37.7307 4.7861 37.5099 4.84803 37.3161 4.9719C37.1222 5.09038 36.9714 5.25732 36.8637 5.47274C36.756 5.68816 36.7021 5.93588 36.7021 6.21592C36.7021 6.51212 36.7883 6.74639 36.9606 6.91872C37.1383 7.09105 37.3834 7.17722 37.6957 7.17722Z" fill="white"/>
<path d="M25.8798 21.5507C23.9764 29.2912 14.9279 35.5692 7.18741 35.5692L9.12335 27.6904C3.22281 26.2783 -1.29818 20.695 0.338422 14.025C2.2467 6.27634 11.2936 0 19.0373 0L17.0997 7.87878C23.0003 9.29088 27.5213 14.8758 25.8798 21.5507Z" fill="url(#paint0_linear)"/>
<path d="M21.6825 16.0321L9.12497 27.6901H9.12334L11.1292 19.5347H4.54053L17.0981 7.87842L15.0938 16.0321H21.6825Z" fill="white"/>
<path d="M38.8454 27.0878C37.7027 26.6254 36.7658 25.9578 36.04 25.0875L38.9818 21.7371C39.9985 23.0105 41.0975 23.646 42.2763 23.646C43.0562 23.646 43.6507 23.4185 44.0599 22.966C44.4692 22.5135 44.6725 21.8509 44.6725 20.9781V13.103H38.081V9.09741H50.0105V20.6616C50.0105 23.0352 49.3877 24.813 48.1445 25.9998C46.9014 27.1867 45.0714 27.7801 42.6572 27.7801C41.2597 27.7801 39.9882 27.5477 38.8454 27.0878Z" fill="#0F1B28"/>
<path d="M66.681 21.5791H55.9509C56.1696 22.3109 56.5917 22.8747 57.2172 23.2678C57.8426 23.661 58.6276 23.8563 59.5722 23.8563C60.28 23.8563 61.5077 23.4829 62.0585 22.6423L66.2563 23.7475C64.7738 26.5934 62.1691 27.6517 59.41 27.6517C57.6856 27.6517 56.1696 27.3376 54.8621 26.7096C53.5547 26.0816 52.5432 25.2088 51.8251 24.0936C51.107 22.9785 50.7492 21.7126 50.7492 20.3007C50.7492 18.9062 51.0993 17.6551 51.7968 16.5449C52.4968 15.4372 53.462 14.5693 54.6974 13.9413C55.9328 13.3133 57.3201 12.9993 58.8644 12.9993C60.334 12.9993 61.6698 13.291 62.8692 13.877C64.0686 14.4606 65.0157 15.3086 65.7158 16.4139C66.4133 17.5191 66.9615 19.1782 66.681 21.5791ZM56.8903 17.1828C56.3549 17.618 56.0152 18.2114 55.8685 18.9631H61.9143C61.7676 18.2139 61.4279 17.6205 60.8925 17.1828C60.3572 16.7477 59.6906 16.5276 58.8901 16.5276C58.0922 16.5301 57.4256 16.7477 56.8903 17.1828Z" fill="#0F1B28"/>
<path d="M115.55 21.5791H104.82C105.038 22.3109 105.46 22.8747 106.086 23.2678C106.711 23.661 107.496 23.8563 108.441 23.8563C109.149 23.8563 110.376 23.4829 110.927 22.6423L115.125 23.7475C113.642 26.5934 111.038 27.6517 108.279 27.6517C106.554 27.6517 105.038 27.3376 103.731 26.7096C102.423 26.0816 101.412 25.2088 100.694 24.0936C99.9756 22.9785 99.6179 21.7126 99.6179 20.3007C99.6179 18.9062 99.9679 17.6551 100.665 16.5449C101.365 15.4372 102.331 14.5693 103.566 13.9413C104.801 13.3133 106.189 12.9993 107.733 12.9993C109.203 12.9993 110.538 13.291 111.738 13.877C112.937 14.4606 113.884 15.3086 114.585 16.4139C115.282 17.5191 115.83 19.1782 115.55 21.5791ZM105.756 17.1828C105.221 17.618 104.881 18.2114 104.735 18.9631H110.78C110.634 18.2139 110.294 17.6205 109.759 17.1828C109.223 16.7477 108.557 16.5276 107.756 16.5276C106.961 16.5301 106.292 16.7477 105.756 17.1828Z" fill="#0F1B28"/>
<path d="M78.8937 26.8385C78.4587 27.1006 77.9259 27.3009 77.3005 27.4394C76.6751 27.5778 76.0059 27.6495 75.2981 27.6495C73.3729 27.6495 71.893 27.197 70.8583 26.2896C69.8237 25.3822 69.3063 24.0297 69.3063 22.2346V17.4725H67.1546V13.7562H69.3063V10.0671H74.4822V13.7562H77.859V17.4725H74.4822V22.1827C74.4822 22.6896 74.6238 23.0852 74.9043 23.372C75.1849 23.6588 75.5632 23.8047 76.0342 23.8047C77.3649 23.8047 78.2348 23.4758 78.8937 23.1445V26.8385V26.8385Z" fill="#0F1B28"/>
<path d="M80.0699 9.09741H88.3086C90.3959 9.09741 92.2491 9.47324 93.8654 10.2224C95.4818 10.9716 96.7352 12.0373 97.6232 13.4145C98.5137 14.7917 98.959 16.4063 98.959 18.2558C98.959 20.1053 98.5137 21.7174 97.6232 23.0971C96.7326 24.4743 95.4792 25.5399 93.8654 26.2891C92.2491 27.0383 90.3959 27.4142 88.3086 27.4142H80.0699V9.09741ZM88.0924 23.28C89.7268 23.28 91.0368 22.835 92.0277 21.9448C93.0161 21.0547 93.5128 19.8259 93.5128 18.2558C93.5128 16.6857 93.0186 15.4568 92.0277 14.5667C91.0368 13.6766 89.7268 13.2315 88.0924 13.2315H85.4645V23.28H88.0924Z" fill="#0F1B28"/>
<path d="M119.199 27.2437C118 26.9742 117.233 26.6206 116.507 26.183V22.0241C117.179 22.4247 119.336 23.5027 120.262 23.7376C121.189 23.9725 122.105 24.0912 123.014 24.0912C123.848 24.0912 124.445 24.0096 124.797 23.8439C125.153 23.6783 125.328 23.4384 125.328 23.1244C125.328 22.8104 125.114 22.5879 124.687 22.4568C124.259 22.3258 123.582 22.1997 122.659 22.0785C121.477 21.9401 120.476 21.7571 119.65 21.5296C118.824 21.3021 118.111 20.8843 117.511 20.2735C116.911 19.6628 116.613 18.8073 116.613 17.7095C116.613 16.8021 116.893 15.996 117.457 15.2889C118.021 14.5817 118.842 14.0254 119.923 13.6149C121.004 13.2045 122.296 12.9993 123.804 12.9993C124.875 12.9993 128.02 13.2762 129.245 14.2034V17.9889C127.937 17.2916 125.356 16.5301 123.832 16.5301C123.016 16.5301 122.417 16.6216 122.036 16.8045C121.655 16.9875 121.464 17.2273 121.464 17.5241C121.464 17.8554 121.673 18.0878 122.09 18.2164C122.507 18.3474 123.196 18.4834 124.159 18.6219C125.376 18.7974 126.383 18.9977 127.183 19.2227C127.981 19.4502 128.676 19.8631 129.268 20.4664C129.857 21.0672 130.153 21.9104 130.153 22.9909C130.153 23.881 129.873 24.6797 129.309 25.3843C128.746 26.0915 127.914 26.6453 126.818 27.0459C125.719 27.4465 124.398 27.6467 122.854 27.6467C121.614 27.6492 120.396 27.5132 119.199 27.2437Z" fill="#0F1B28"/>
<path d="M137.597 22.4422L136.07 23.9332V27.4121H130.895V8H136.07V18.1771L141.354 13.2319H147.483L141.354 19.3021L148 27.4121H141.735L137.597 22.4422Z" fill="#0F1B28"/>
<defs>
<linearGradient id="paint0_linear" x1="26.2198" y1="17.7846" x2="0.00329401" y2="17.7846" gradientUnits="userSpaceOnUse">
<stop stop-color="#2A82E9"/>
<stop offset="1" stop-color="#4937E8"/>
</linearGradient>
</defs>
</svg>
