<svg width="148" height="36" viewBox="0 0 148 36" fill="none" xmlns="http://www.w3.org/2000/svg">
<path d="M25.8838 21.8117C23.9801 29.646 14.9302 36 7.18852 36L9.12476 28.0258C3.2233 26.5966 -1.29838 20.9457 0.338474 14.1948C2.24705 6.35236 11.2953 0 19.0402 0L17.1024 7.9742C23.0038 9.4034 27.5255 15.056 25.8838 21.8117Z" fill="white"/>
<path d="M25.8838 21.8117C23.9801 29.646 14.9302 36 7.18852 36L9.12476 28.0258C3.2233 26.5966 -1.29838 20.9457 0.338474 14.1948C2.24705 6.35236 11.2953 0 19.0402 0L17.1024 7.9742C23.0038 9.4034 27.5255 15.056 25.8838 21.8117Z" fill="url(#paint0_linear)"/>
<path d="M21.6861 16.2271L9.12664 28.0262H9.12501L11.1312 19.7721H4.5415L17.101 7.97461L15.0964 16.2271H21.6861Z" fill="white"/>
<path d="M38.8195 26.8987C37.732 26.4453 36.7746 25.7158 36.0374 24.7786L38.9542 21.2252C39.9623 22.5755 41.0526 23.2499 42.225 23.2486C42.9946 23.2486 43.584 23.0084 43.9931 22.5281C44.4023 22.0477 44.605 21.3456 44.6011 20.4217V12.0871H38.0595V7.84668H49.8883V20.096C49.8883 22.6097 49.272 24.4943 48.0393 25.7498C46.8067 27.0053 44.9936 27.6318 42.6002 27.6292C41.305 27.6481 40.0193 27.3997 38.8195 26.8987Z" fill="#0F1B28"/>
<path d="M65.9765 21.3497H55.9509C56.1276 22.0674 56.5497 22.6895 57.1348 23.0944C57.7959 23.524 58.5612 23.7376 59.3357 23.7087C59.9974 23.7087 61.1487 23.3236 61.6581 22.4551L65.5795 23.5971C64.1962 26.5376 61.7614 27.6295 59.1816 27.6295C57.5693 27.6295 56.1528 27.3086 54.9321 26.6667C53.7781 26.0631 52.804 25.132 52.1177 23.9764C51.4315 22.8208 51.0599 21.4859 51.0441 20.1197C51.0283 18.7535 51.369 17.4094 52.0284 16.2363C52.6878 15.0632 53.6401 14.1069 54.7798 13.4735C55.9634 12.8455 57.2665 12.513 58.5896 12.5013C59.9127 12.4896 61.2207 12.7991 62.4141 13.4061C63.5145 13.9877 64.4368 14.8893 65.0737 16.0058C65.7263 17.1613 66.2448 18.8694 65.9765 21.3497ZM56.8284 16.8089C56.3152 17.2823 55.9772 17.9341 55.8748 18.6479H61.5312C61.4273 17.9347 61.0896 17.2834 60.5776 16.8089C60.0411 16.3707 59.3833 16.1331 58.7066 16.1331C58.0299 16.1331 57.3721 16.3707 56.8356 16.8089H56.8284Z" fill="#0F1B28"/>
<path d="M115.605 21.3497H104.805C104.995 22.0674 105.45 22.6895 106.08 23.0944C106.792 23.524 107.616 23.7376 108.451 23.7087C109.163 23.7087 110.403 23.3236 110.952 22.4551L115.175 23.5971C113.685 26.5376 111.063 27.6295 108.287 27.6295C106.549 27.6295 105.023 27.3086 103.708 26.6667C102.465 26.0631 101.416 25.132 100.677 23.9764C99.9378 22.8208 99.5376 21.4859 99.5206 20.1197C99.5036 18.7535 99.8705 17.4094 100.581 16.2363C101.291 15.0632 102.316 14.1069 103.544 13.4735C104.819 12.8455 106.222 12.513 107.647 12.5013C109.072 12.4896 110.481 12.7991 111.766 13.4061C112.951 13.9877 113.944 14.8893 114.63 16.0058C115.333 17.1613 115.886 18.8694 115.605 21.3497ZM105.75 16.8089C105.198 17.2828 104.834 17.9344 104.723 18.6479H110.807C110.696 17.9344 110.332 17.2828 109.78 16.8089C109.202 16.3707 108.494 16.1331 107.765 16.1331C107.036 16.1331 106.328 16.3707 105.75 16.8089Z" fill="#0F1B28"/>
<path d="M78.745 26.771C78.26 27.0705 77.7309 27.2858 77.1786 27.4084C76.5325 27.5585 75.872 27.6326 75.2097 27.6294C73.3172 27.6294 71.8621 27.1492 70.8446 26.1888C69.8271 25.2284 69.3183 23.7969 69.3183 21.8945V16.8464H67.2025V12.9133H69.3183V9.00977H74.4065V12.9133H77.7262V16.8464H74.4065V21.8373C74.3812 22.2973 74.5296 22.7494 74.8205 23.0983C74.9641 23.2516 75.1375 23.3715 75.3292 23.4501C75.521 23.5287 75.7268 23.5642 75.9328 23.5542C76.9126 23.5742 77.8809 23.3337 78.745 22.8556V26.771Z" fill="#0F1B28"/>
<path d="M79.901 7.84668H87.9559C89.9972 7.84668 91.8083 8.24956 93.3892 9.05532C94.9039 9.80941 96.1803 11.0136 97.0638 12.5221C97.9326 14.0101 98.3677 15.7559 98.3689 17.7596C98.3702 19.7632 97.9352 21.5091 97.0638 22.997C96.1755 24.4909 94.8994 25.6801 93.3892 26.4215C91.8083 27.2273 89.9972 27.6302 87.9559 27.6302H79.901V7.84668ZM87.7435 23.1743C89.3408 23.1743 90.6232 22.6935 91.5907 21.732C92.5582 20.7704 93.042 19.4416 93.042 17.7455C93.042 16.0467 92.5582 14.7172 91.5907 13.757C90.6232 12.7967 89.3408 12.318 87.7435 12.3207H85.173V23.1803L87.7435 23.1743Z" fill="#0F1B28"/>
<path d="M119.343 27.21C118.453 27.0052 117.604 26.6353 116.834 26.1171V21.8221C117.46 22.2378 119.469 23.3481 120.333 23.5905C121.168 23.8308 122.029 23.9537 122.894 23.9561C123.673 23.9561 124.226 23.8714 124.557 23.7002C124.7 23.6437 124.824 23.5427 124.912 23.4102C125.001 23.2777 125.049 23.1199 125.052 22.9574C125.052 22.6322 124.853 22.4032 124.456 22.2666C123.836 22.087 123.204 21.9583 122.565 21.8818C121.619 21.7691 120.682 21.5793 119.762 21.3141C119 21.0844 118.312 20.6357 117.774 20.0172C117.216 19.3873 116.937 18.5053 116.937 17.3713C116.924 16.4671 117.198 15.5847 117.716 14.8678C118.24 14.1392 119.005 13.5619 120.012 13.136C121.018 12.7101 122.223 12.4984 123.626 12.501C124.624 12.501 127.552 12.7877 128.687 13.7441V17.6542C127.47 16.9345 125.072 16.1475 123.646 16.1475C122.883 16.1475 122.327 16.2418 121.971 16.4303C121.615 16.6189 121.438 16.8671 121.438 17.1731C121.438 17.5156 121.632 17.7549 122.021 17.8909C122.654 18.0798 123.298 18.2194 123.95 18.3084C124.9 18.4478 125.841 18.6554 126.766 18.93C127.509 19.1638 128.18 19.6073 128.707 20.2134C129.256 20.8343 129.531 21.7028 129.531 22.8189C129.538 23.7151 129.26 24.5875 128.741 25.2935C128.217 26.0234 127.443 26.5949 126.42 27.008C125.397 27.4211 124.167 27.6282 122.728 27.6295C121.588 27.6286 120.452 27.4879 119.343 27.21Z" fill="#0F1B28"/>
<path d="M138.17 22.5646L136.729 24.0841V27.6302H131.841V7.84668H136.729V18.2171L141.722 13.1838H147.511L141.722 19.3643L148 27.6302H142.081L138.17 22.5646Z" fill="#0F1B28"/>
<defs>
<linearGradient id="paint0_linear" x1="26.2238" y1="18" x2="0.00329452" y2="18" gradientUnits="userSpaceOnUse">
<stop stop-color="#2A82E9"/>
<stop offset="1" stop-color="#4937E8"/>
</linearGradient>
</defs>
</svg>
