<svg width="49" height="49" viewBox="0 0 49 49" fill="none" xmlns="http://www.w3.org/2000/svg">
<path d="M48.0766 24.4995C48.0766 29.2453 46.6667 33.8846 44.0254 37.8307C41.384 41.7767 37.6297 44.8523 33.2373 46.6685C28.8449 48.4846 24.0116 48.9598 19.3486 48.034C14.6857 47.1081 10.4025 44.8227 7.04066 41.4669C3.67884 38.111 1.38942 33.8354 0.461899 29.1808C-0.465623 24.5261 0.0104154 19.7014 1.82982 15.3168C3.64922 10.9321 6.73026 7.18455 10.6833 4.54789C14.6364 1.91122 19.284 0.503906 24.0383 0.503906C30.4136 0.503906 36.5279 3.032 41.0359 7.53204C45.544 12.0321 48.0766 18.1354 48.0766 24.4995Z" fill="#DA552F"/>
<path d="M27.2439 12.502H15.6365V36.4975H20.4316V29.2994H27.2439C29.4496 29.2606 31.552 28.3587 33.0982 26.7879C34.6444 25.217 35.5107 23.1029 35.5107 20.9007C35.5107 18.6984 34.6444 16.5843 33.0982 15.0135C31.552 13.4426 29.4496 12.5407 27.2439 12.502ZM27.2439 24.4997H20.4316V17.3016H27.2439C28.1833 17.3268 29.0758 17.717 29.7313 18.3893C30.3869 19.0615 30.7537 19.9625 30.7537 20.9007C30.7537 21.8388 30.3869 22.7399 29.7313 23.4121C29.0758 24.0843 28.1833 24.4745 27.2439 24.4997Z" fill="white"/>
</svg>
