<svg width="120" height="36" viewBox="0 0 120 36" fill="none" xmlns="http://www.w3.org/2000/svg">
<rect width="56" height="36" rx="4" fill="#1F2D40"/>
<path d="M34.8547 11C31.6387 11 28.7647 12.5902 28.7647 15.5282C28.7647 18.8976 33.8618 19.1303 33.8618 20.823C33.8618 21.5357 33.0057 22.1737 31.5433 22.1737C29.468 22.1737 27.9169 21.2822 27.9169 21.2822L27.2532 24.247C27.2532 24.247 29.0401 25 31.4124 25C34.9285 25 37.6954 23.3317 37.6954 20.3435C37.6954 16.7831 32.5769 16.5573 32.5769 14.9863C32.5769 14.4279 33.2798 13.8162 34.7379 13.8162C36.3831 13.8162 37.7254 14.4645 37.7254 14.4645L38.375 11.6011C38.375 11.6011 36.9144 11 34.8547 11V11ZM5.4309 11.2161L5.35303 11.6483C5.35303 11.6483 6.70603 11.8846 7.92463 12.3558C9.49367 12.8961 9.60544 13.2107 9.8697 14.1877L12.7492 24.7771H16.6093L22.556 11.2161H18.7048L14.8837 20.4363L13.3245 12.6208C13.1815 11.7264 12.4571 11.2161 11.5705 11.2161H5.4309V11.2161ZM24.1046 11.2161L21.0835 24.7771H24.7559L27.7665 11.2161H24.1046V11.2161ZM44.5872 11.2161C43.7016 11.2161 43.2324 11.6684 42.8881 12.4588L37.5077 24.7771H41.3589L42.1041 22.7241H46.7959L47.249 24.7771H50.6471L47.6826 11.2161H44.5872V11.2161ZM45.088 14.8799L46.2296 19.9686H43.1713L45.088 14.8799V14.8799Z" fill="white"/>
<rect x="64" width="56" height="36" rx="4" fill="#1F2D40"/>
<path d="M97.3403 8.40437H86.6597V27.5955H97.3403V8.40437Z" fill="#FF5F00"/>
<path d="M87.338 18.0002C87.338 14.101 89.1689 10.6425 91.9832 8.40467C89.9149 6.77716 87.304 5.79386 84.4559 5.79386C77.7085 5.79386 72.2495 11.2528 72.2495 18.0002C72.2495 24.7477 77.7085 30.2066 84.4559 30.2066C87.304 30.2066 89.9149 29.2233 91.9832 27.5958C89.1689 25.3919 87.338 21.8995 87.338 18.0002Z" fill="#EB001B"/>
<path d="M111.751 18.0002C111.751 24.7476 106.292 30.2065 99.5444 30.2065C96.6962 30.2065 94.0854 29.2233 92.0171 27.5957C94.8652 25.3579 96.6623 21.8994 96.6623 18.0002C96.6623 14.1009 94.8313 10.6424 92.0171 8.40459C94.0854 6.77707 96.6962 5.79378 99.5444 5.79378C106.292 5.79378 111.751 11.2866 111.751 18.0002Z" fill="#F79E1B"/>
</svg>
